# Blender 4.1.0 Alpha
# www.blender.org
mtllib stone_1.mtl
o stones_1
v 0.321021 -0.007146 -0.004330
v -0.151017 0.103059 -0.534345
v 0.328997 0.251561 -0.996949
v 0.811447 0.246293 -0.691474
v 0.318768 -0.007146 -1.116363
v 0.993076 -0.007146 -0.704477
v 0.299332 0.098123 -1.094104
v 0.969458 0.102755 -0.706376
v -0.130914 -0.007146 -0.473657
v -0.178119 -0.007146 -0.740387
v 0.202762 0.272245 -0.292309
v 0.619429 0.319616 -0.314375
v 0.032554 0.108885 -0.891482
v 0.013314 -0.007146 -0.960016
v 0.717702 0.095819 -0.335330
v 0.745567 -0.007146 -0.330702
v 0.041399 -0.007146 0.399024
v -0.506235 0.182275 0.191113
v -0.506047 0.184186 -0.203849
v -0.045231 0.223653 -0.288100
v -0.578652 -0.007146 -0.270152
v 0.057037 -0.007146 -0.396991
v -0.571938 0.103349 0.262583
v -0.577985 0.099299 -0.245918
v 0.041741 0.103100 -0.384995
v 0.033681 0.100262 0.389769
v -0.492182 -0.007146 0.367513
v -0.669039 -0.007146 0.232969
v -0.208536 0.270094 0.226464
v 0.030390 0.267967 -0.018657
v -0.019115 0.194546 0.311421
v -0.554156 0.169063 0.024590
v -0.626091 0.108128 0.024665
v -0.675820 -0.007146 -0.005949
v 0.096397 0.097409 -0.021229
v 0.115771 -0.007146 -0.033942
v -0.454595 -0.007146 0.590361
v -0.508926 0.027775 0.647735
v -0.515519 0.033537 0.493936
v -0.607502 -0.007146 0.491716
v -0.567546 -0.007146 0.651733
v -0.565775 0.033537 0.646363
v -0.620307 0.012602 0.568227
v -0.626698 -0.007146 0.549937
v -0.460987 0.012602 0.572072
v -0.513748 -0.007146 0.488565
v -0.473792 -0.007146 0.648583
v -0.593408 0.012602 0.486642
v 0.291257 -0.007146 0.317869
v 0.413116 0.045474 0.282173
v 0.272358 0.031270 0.342665
v 0.165935 -0.007146 0.412183
v 0.500277 -0.007146 0.389571
v 0.400126 0.065795 0.427853
v 0.249870 0.032880 0.513183
v 0.373443 -0.007146 0.480886
v 0.328604 0.048703 0.320032
v 0.371524 -0.007146 0.244354
v 0.196767 -0.007146 0.331995
v 0.192660 0.031270 0.386128
v 0.205707 0.022316 0.336460
v 0.427354 -0.007146 0.261709
v 0.186013 -0.007146 0.473718
v 0.478586 -0.007146 0.324836
v 0.470633 -0.007146 0.297104
v 0.473835 0.043865 0.416187
v 0.235349 -0.007146 0.533084
v 0.193290 -0.007146 0.500108
v 0.392342 0.031270 0.456090
v 0.470899 -0.007146 0.472645
v 0.461757 0.022316 0.467779
v 0.314704 -0.007146 0.527432
v 0.290209 -0.007146 0.548517
v 0.132094 -0.007146 0.578034
v 0.172914 0.063526 0.738467
v -0.060142 0.095903 0.634783
v -0.213733 -0.007146 0.738467
v 0.114397 -0.007146 0.846767
v 0.106867 0.037400 0.837621
v -0.092549 0.031737 0.846767
v -0.132094 -0.007146 0.837621
v -0.106867 0.037400 0.578034
v 0.057199 0.090971 0.621958
v 0.092549 0.031737 0.568888
v -0.114397 -0.007146 0.568888
v 0.213733 -0.007146 0.677187
v -0.206946 0.031737 0.707827
vn -0.0432 0.7081 0.7048
vn 0.4815 0.2655 -0.8353
vn 0.5188 0.0968 -0.8494
vn 0.8009 0.2414 0.5479
vn 0.8193 0.1854 0.5425
vn -0.9813 -0.0834 0.1737
vn 0.4463 0.5635 -0.6952
vn 0.4541 0.4123 -0.7898
vn -0.6987 0.2431 0.6728
vn -0.6707 0.4565 -0.5846
vn -0.6182 0.7240 -0.3059
vn 0.8622 0.3437 0.3722
vn 0.6269 0.6447 0.4374
vn 0.0998 0.9850 -0.1407
vn -0.1154 0.9921 -0.0498
vn -0.3762 0.9217 -0.0944
vn -0.6402 0.4031 0.6540
vn -0.4991 0.5304 -0.6853
vn -0.4886 0.8396 -0.2374
vn -0.4532 0.1035 -0.8854
vn -0.5116 0.4983 -0.7000
vn 0.5994 0.1904 0.7775
vn 0.5976 0.1967 0.7773
vn 0.2615 0.9331 0.2468
vn -0.2150 0.2181 -0.9520
vn -0.1951 0.0793 -0.9776
vn 0.9700 0.1971 -0.1427
vn 0.9756 0.1525 -0.1578
vn -0.5769 0.3037 0.7583
vn -0.6771 0.7163 0.1685
vn -0.6413 0.7572 0.1245
vn -0.1964 0.5243 -0.8286
vn -0.1850 0.5578 -0.8091
vn -0.1587 0.6173 0.7706
vn -0.0588 0.0815 0.9949
vn -0.9204 0.3901 0.0261
vn -0.7622 0.6200 0.1859
vn 0.8863 0.3476 -0.3059
vn 0.7646 0.6359 -0.1049
vn -0.1085 0.9854 -0.1316
vn -0.1131 0.9865 -0.1188
vn -0.2827 0.9592 0.0040
vn -0.2835 0.9589 0.0055
vn -0.1379 0.7254 0.6743
vn -0.2131 0.5511 0.8068
vn -0.2277 0.4180 0.8794
vn -0.7165 0.6814 -0.1496
vn -0.6441 0.7602 -0.0853
vn -0.9352 0.0842 -0.3439
vn -0.8872 0.4283 -0.1717
vn 0.8198 0.5597 0.1212
vn 0.9120 0.3497 0.2146
vn 0.9820 0.0851 0.1687
vn 0.9755 0.1628 0.1477
vn 0.7362 -0.3160 -0.5985
vn 0.8600 0.1034 -0.4997
vn -0.0333 0.1294 -0.9910
vn 0.6714 0.6826 0.2885
vn 0.8153 0.5128 0.2688
vn 0.2514 0.9643 0.0829
vn 0.1837 -0.3655 -0.9125
vn 0.1031 0.9858 -0.1324
vn 0.0335 0.0580 0.9978
vn -0.2514 0.9643 -0.0829
vn -0.8153 0.5128 -0.2688
vn -0.0106 0.1313 0.9913
vn -0.8600 0.1034 0.4997
vn -0.7362 -0.3160 0.5985
vn -0.6088 0.4329 -0.6648
vn -0.4380 0.3254 -0.8380
vn -0.2721 0.6941 -0.6665
vn -0.1287 0.4923 -0.8609
vn 0.0750 0.1271 -0.9890
vn -0.8648 0.3761 -0.3325
vn -0.9013 0.3181 -0.2941
vn -0.1116 0.9725 -0.2046
vn 0.2705 0.4116 -0.8703
vn -0.2827 0.9585 0.0356
vn -0.0055 0.9999 -0.0102
vn -0.7166 0.6571 0.2338
vn -0.6263 0.7303 0.2728
vn 0.5724 0.4271 -0.6999
vn 0.6891 0.6972 -0.1976
vn -0.0250 0.9898 -0.1403
vn 0.2675 0.9573 -0.1097
vn 0.7924 0.5493 -0.2655
vn 0.7107 0.6293 -0.3144
vn -0.2356 0.9710 -0.0402
vn -0.5255 0.5239 0.6703
vn -0.5947 0.7871 0.1640
vn 0.8993 0.3002 0.3180
vn 0.8794 0.3296 0.3435
vn 0.3193 0.8455 0.4279
vn -0.0469 0.6387 0.7680
vn 0.0722 0.5156 0.8538
vn -0.1504 0.1155 0.9819
vn 0.3142 0.5576 0.7684
vn 0.6090 0.1964 0.7685
vn 0.2768 0.6874 0.6714
vn 0.3927 0.7985 0.4562
vn -0.2346 0.4997 0.8338
vn -0.0519 -0.2784 -0.9591
vn -0.0463 0.7143 -0.6983
vn -0.0156 0.6620 -0.7493
vn 0.5771 0.7084 -0.4063
vn 0.0364 0.1951 -0.9801
vn -0.8372 0.2422 -0.4904
vn 0.5896 0.6960 -0.4099
vn 0.6515 0.5364 -0.5364
vn 0.0656 0.9718 0.2263
vn -0.5198 0.7713 -0.3672
vn -0.7400 -0.3319 -0.5851
vn -0.0163 0.9695 0.2446
vn 0.8613 0.0600 0.5045
vn -0.2877 0.9280 0.2369
vn -0.0140 0.9576 0.2877
vn -0.6515 0.5364 0.5364
vn 0.7741 0.2503 0.5816
vn -0.0364 0.1951 0.9801
vn 0.0519 -0.2784 0.9591
vt 0.058971 0.635226
vt 0.059879 0.635928
vt 0.059096 0.636030
vt 0.059529 0.637666
vt 0.060730 0.636751
vt 0.059706 0.637882
vt 0.060937 0.636956
vt 0.060071 0.635453
vt 0.060111 0.635204
vt 0.061012 0.635515
vt 0.061054 0.635203
vt 0.058386 0.636509
vt 0.057966 0.636723
vt 0.058270 0.636289
vt 0.060329 0.636635
vt 0.059448 0.637316
vt 0.058625 0.637423
vt 0.058266 0.636970
vt 0.058789 0.637180
vt 0.060776 0.635899
vt 0.059262 0.637629
vt 0.059129 0.637879
vt 0.059291 0.635891
vt 0.059690 0.636440
vt 0.059098 0.636247
vt 0.058837 0.637408
vt 0.060018 0.637198
vt 0.058883 0.637625
vt 0.060089 0.637418
vt 0.060086 0.635674
vt 0.060133 0.635458
vt 0.060909 0.635786
vt 0.060963 0.635514
vt 0.058379 0.636417
vt 0.058122 0.636487
vt 0.058348 0.636120
vt 0.058592 0.636519
vt 0.058366 0.636866
vt 0.058544 0.636851
vt 0.059775 0.636968
vt 0.058918 0.637199
vt 0.059205 0.635648
vt 0.059134 0.635458
vt 0.058145 0.636946
vt 0.060039 0.636084
vt 0.060679 0.636115
vt 0.058643 0.636851
vt 0.058453 0.637381
vt 0.058659 0.637284
vt 0.058248 0.637477
vt 0.059693 0.636486
vt 0.059751 0.636433
vt 0.059644 0.636679
vt 0.059751 0.636688
vt 0.059640 0.636776
vt 0.059458 0.636762
vt 0.059515 0.636396
vt 0.059553 0.636272
vt 0.059441 0.636449
vt 0.059499 0.636724
vt 0.059364 0.636415
vt 0.059408 0.636614
vt 0.059367 0.636657
vt 0.059311 0.636239
vt 0.059534 0.636226
vt 0.059476 0.636382
vt 0.059613 0.636381
vt 0.059315 0.636387
vt 0.059868 0.636226
vt 0.059804 0.636356
vt 0.059914 0.636526
vt 0.059802 0.636464
vt 0.059895 0.636344
vt 0.059220 0.636320
vt 0.059410 0.636604
vt 0.059710 0.636711
vt 0.059875 0.636655
vt 0.059173 0.636423
vt 0.059171 0.636478
vt 0.059293 0.636616
vt 0.059175 0.636608
vt 0.059771 0.636797
vt 0.059857 0.636712
vt 0.059267 0.636751
vt 0.059310 0.636696
vt 0.059428 0.636682
vt 0.059455 0.636792
vt 0.059602 0.636827
vt 0.059664 0.636858
vt 0.059867 0.636423
vt 0.059999 0.636318
vt 0.059757 0.636842
vt 0.059643 0.636693
vt 0.059697 0.636487
vt 0.059478 0.636232
vt 0.059905 0.636885
vt 0.059769 0.636976
vt 0.059370 0.636988
vt 0.059565 0.635971
vt 0.059290 0.636333
vt 0.059449 0.636904
vt 0.059176 0.636277
vt 0.059261 0.636689
vt 0.059176 0.636782
s 1
usemtl Elf_bush_Map.019
f 1/1/1 12/2/1 11/3/1
f 7/4/2 8/5/2 5/6/2
f 5/6/3 8/5/3 6/7/3
f 15/8/4 16/9/4 8/10/4
f 8/10/5 16/9/5 6/11/5
f 2/12/6 10/13/6 9/14/6
f 4/15/7 8/5/7 3/16/7
f 3/16/8 8/5/8 7/4/8
f 2/12/9 9/14/9 1/1/9
f 14/17/10 10/18/10 13/19/10
f 13/19/11 10/18/11 2/12/11
f 12/2/12 15/8/12 4/20/12
f 4/20/13 15/8/13 8/10/13
f 4/15/14 3/16/14 12/2/14
f 12/2/15 3/16/15 11/3/15
f 3/16/16 2/12/16 11/3/16
f 1/1/17 11/3/17 2/12/17
f 7/21/18 13/19/18 3/16/18
f 3/16/19 13/19/19 2/12/19
f 5/22/20 14/17/20 7/21/20
f 7/21/21 14/17/21 13/19/21
f 1/1/22 15/8/22 12/2/22
f 1/1/23 16/9/23 15/8/23
f 31/23/24 30/24/24 29/25/24
f 24/26/25 25/27/25 21/28/25
f 21/28/26 25/27/26 22/29/26
f 35/30/27 36/31/27 25/32/27
f 25/32/28 36/31/28 22/33/28
f 23/34/29 28/35/29 27/36/29
f 23/34/30 18/37/30 33/38/30
f 33/38/31 18/37/31 32/39/31
f 20/40/32 25/27/32 19/41/32
f 19/41/33 25/27/33 24/26/33
f 23/34/34 27/36/34 26/42/34
f 26/42/35 27/36/35 17/43/35
f 34/44/36 28/35/36 33/38/36
f 33/38/37 28/35/37 23/34/37
f 30/45/38 35/30/38 20/46/38
f 20/46/39 35/30/39 25/32/39
f 20/40/40 19/41/40 30/24/40
f 30/24/41 19/41/41 29/25/41
f 19/41/42 32/47/42 29/25/42
f 18/37/43 29/25/43 32/47/43
f 23/34/44 26/42/44 18/37/44
f 26/42/45 31/23/45 18/37/45
f 31/23/46 29/25/46 18/37/46
f 24/48/47 33/38/47 19/49/47
f 19/49/48 33/38/48 32/39/48
f 21/50/49 34/44/49 24/48/49
f 24/48/50 34/44/50 33/38/50
f 26/42/51 35/30/51 31/23/51
f 31/23/52 35/30/52 30/45/52
f 17/43/53 36/31/53 26/42/53
f 26/42/54 36/31/54 35/30/54
f 45/51/55 37/52/55 39/53/55
f 39/53/56 37/52/56 46/54/56
f 46/55/57 40/56/57 39/53/57
f 38/57/58 47/58/58 45/51/58
f 45/51/59 47/58/59 37/52/59
f 39/53/60 42/59/60 45/51/60
f 39/53/61 40/56/61 48/60/61
f 45/51/62 42/59/62 38/57/62
f 38/57/63 41/61/63 47/58/63
f 48/60/64 43/62/64 39/53/64
f 39/53/64 43/62/64 42/59/64
f 43/62/65 48/60/65 44/63/65
f 44/63/65 48/60/65 40/56/65
f 41/61/66 38/57/66 42/59/66
f 42/59/67 44/63/67 41/61/67
f 43/62/68 44/63/68 42/59/68
f 58/64/69 49/65/69 57/66/69
f 57/66/70 49/65/70 51/67/70
f 57/66/71 50/68/71 58/64/71
f 49/65/72 59/69/72 51/67/72
f 51/67/73 59/69/73 61/70/73
f 52/71/74 60/72/74 59/73/74
f 59/73/75 60/72/75 61/70/75
f 60/72/76 51/67/76 61/70/76
f 58/64/77 50/68/77 62/74/77
f 57/66/78 51/67/78 54/75/78
f 55/76/79 51/67/79 60/72/79
f 52/71/80 63/77/80 60/72/80
f 60/72/81 63/77/81 55/76/81
f 62/74/82 50/68/82 65/78/82
f 65/78/83 50/68/83 64/79/83
f 57/66/84 54/75/84 50/68/84
f 50/68/85 54/75/85 66/80/85
f 53/81/86 64/79/86 66/80/86
f 66/80/87 64/79/87 50/68/87
f 54/75/88 51/67/88 55/76/88
f 67/82/89 55/76/89 68/83/89
f 68/83/90 55/76/90 63/77/90
f 53/81/91 66/80/91 70/84/91
f 70/84/92 66/80/92 71/85/92
f 66/80/93 54/75/93 71/85/93
f 71/85/94 54/75/94 69/86/94
f 56/87/95 70/84/95 69/86/95
f 69/86/96 70/84/96 71/85/96
f 69/86/97 54/75/97 55/76/97
f 56/87/98 69/86/98 72/88/98
f 72/88/99 69/86/99 55/76/99
f 72/88/100 55/76/100 73/89/100
f 73/89/101 55/76/101 67/82/101
f 84/90/102 74/91/102 82/92/102
f 76/93/103 83/94/103 82/92/103
f 82/92/104 83/94/104 84/90/104
f 83/94/105 75/95/105 84/90/105
f 82/92/106 74/91/106 85/96/106
f 85/97/107 77/98/107 82/92/107
f 75/95/108 86/99/108 84/90/108
f 84/90/109 86/99/109 74/91/109
f 76/93/110 79/100/110 83/94/110
f 87/101/111 76/93/111 82/92/111
f 82/92/112 77/98/112 87/101/112
f 83/94/113 79/100/113 75/95/113
f 75/95/114 78/102/114 86/99/114
f 87/101/115 80/103/115 76/93/115
f 76/93/116 80/103/116 79/100/116
f 80/103/117 87/101/117 81/104/117
f 81/104/117 87/101/117 77/98/117
f 78/102/118 75/95/118 79/100/118
f 79/100/119 81/104/119 78/102/119
f 80/103/120 81/104/120 79/100/120
