# Blender 4.1.0 Alpha
# www.blender.org
mtllib stone_3.mtl
o stone_3
v 0.509907 -0.000512 0.568904
v 0.531457 -0.000512 0.401505
v 0.362484 -0.000512 0.317144
v 0.127384 -0.000512 0.346556
v -0.007867 -0.000512 0.506132
v 0.082341 -0.000512 0.662755
v 0.304163 -0.000512 0.684941
v 0.364928 0.170860 0.296976
v 0.098283 0.046819 0.369759
v -0.024560 0.044282 0.520696
v 0.081059 0.048632 0.646666
v 0.291788 0.174540 0.683286
v 0.393013 0.177891 0.561983
v 0.511536 0.092974 0.569346
v 0.422008 0.174488 0.419384
v 0.519456 0.094777 0.402862
v 0.194673 -0.000512 0.703187
v 0.200742 0.104639 0.703970
v 0.232775 -0.000512 0.316322
v 0.214912 0.107988 0.304906
v -0.262003 -0.000512 0.754280
v -0.213400 -0.000512 0.735087
v -0.215801 -0.000512 0.676663
v -0.258935 -0.000512 0.617329
v -0.322421 -0.000512 0.604529
v -0.351389 -0.000512 0.652407
v -0.324229 -0.000512 0.715859
v -0.209968 0.051193 0.674310
v -0.269577 0.012789 0.612910
v -0.328866 0.012004 0.602182
v -0.347220 0.013351 0.649653
v -0.325631 0.052332 0.712256
v -0.277609 0.053370 0.721556
v -0.261879 0.027079 0.754788
v -0.215563 0.027637 0.732036
v -0.345550 -0.000512 0.688906
v -0.456204 -0.000512 0.214987
v -0.372050 -0.000512 0.317843
v -0.391462 0.207649 0.172463
v -0.330836 0.165216 0.253878
v 0.333003 -0.000512 0.051447
v -0.123589 -0.000512 0.352681
v -0.112385 0.268012 0.311639
v -0.373544 0.253260 -0.013766
v -0.041410 0.254839 -0.308346
v -0.443564 -0.000512 -0.041170
v -0.033607 -0.000512 -0.368327
v 0.326818 -0.000512 -0.100463
v 0.231805 -0.000512 -0.354473
v 0.158318 -0.000512 0.283433
v -0.322955 -0.000512 -0.291476
v -0.268089 0.254288 -0.237757
v 0.298911 0.123878 0.053052
v 0.169643 0.227324 -0.004615
v 0.216354 0.144198 -0.318038
v 0.144741 0.122482 0.254623
v 0.150654 0.034068 0.274184
v -0.115315 0.096733 0.351159
v -0.359821 0.097766 0.300209
v -0.450231 0.100175 0.223348
v -0.428368 0.101532 -0.041085
v -0.317405 0.105194 -0.269626
v -0.034189 0.102018 -0.347039
v 0.229759 0.037252 -0.347353
v 0.334570 0.053051 -0.110002
v 0.316009 -0.000512 0.066338
vn 0.9917 -0.0179 0.1277
vn 0.9911 0.1241 0.0485
vn 0.4456 0.0688 -0.8926
vn 0.5257 -0.1068 -0.8439
vn 0.0063 -0.1036 -0.9946
vn -0.0035 -0.1168 -0.9931
vn -0.7542 -0.1503 -0.6392
vn -0.7722 -0.0830 -0.6299
vn -0.7796 -0.4365 0.4490
vn -0.7561 0.1857 0.6275
vn -0.3244 0.2866 0.9014
vn -0.4389 0.0186 0.8984
vn 0.4912 -0.0127 0.8710
vn 0.4721 0.0417 0.8806
vn -0.5256 0.7830 0.3325
vn -0.5193 0.7501 0.4095
vn -0.2660 0.9609 -0.0770
vn -0.3756 0.9149 0.1480
vn 0.5756 0.8119 0.0977
vn 0.6366 0.7702 0.0386
vn 0.5043 0.7422 0.4414
vn 0.5757 0.7641 -0.2911
vn 0.1644 -0.0168 0.9863
vn 0.2042 0.0237 0.9787
vn -0.2640 0.2888 -0.9203
vn -0.4132 -0.1623 -0.8961
vn -0.1908 0.9727 -0.1323
vn -0.3362 0.9368 -0.0965
vn -0.6016 0.6393 -0.4789
vn 0.3672 -0.0188 0.9299
vn 0.4359 0.1300 0.8906
vn 0.9966 0.0721 -0.0410
vn 0.9926 -0.1096 0.0515
vn 0.7371 0.4117 -0.5359
vn 0.7475 -0.1141 -0.6543
vn 0.1949 -0.1652 -0.9668
vn 0.1785 -0.0918 -0.9797
vn -0.7536 -0.4735 -0.4559
vn -0.9113 0.2030 -0.3581
vn -0.9382 0.3120 0.1501
vn -0.5253 -0.0133 0.8508
vn -0.5427 0.0428 0.8388
vn -0.9453 0.2929 0.1436
vn -0.6094 0.7501 -0.2569
vn -0.2191 0.9086 -0.3556
vn 0.3549 0.8076 0.4709
vn 0.1790 0.9047 0.3865
vn -0.1428 0.7422 0.6548
vn -0.7841 0.0215 0.6203
vn 0.0469 0.9369 -0.3465
vn 0.0500 0.9373 -0.3449
vn -0.1363 0.1914 0.9720
vn -0.2038 0.0326 0.9785
vn 0.0487 0.2033 -0.9779
vn 0.0512 0.1877 -0.9809
vn -0.9879 0.1472 -0.0487
vn -0.9945 0.0658 -0.0819
vn -0.7575 0.2054 0.6197
vn -0.6479 -0.0248 0.7613
vn 0.2277 0.2984 0.9269
vn 0.2762 -0.0085 0.9611
vn -0.2566 0.1951 -0.9466
vn -0.2511 0.2086 -0.9452
vn -0.8924 0.1332 -0.4311
vn -0.8925 0.1358 -0.4301
vn 0.4749 0.7990 0.3688
vn 0.5186 0.7742 0.3629
vn 0.6491 0.7537 -0.1031
vn 0.3819 0.9058 -0.1833
vn -0.0000 1.0000 -0.0000
vn 0.9892 -0.1317 0.0641
vn 0.1369 0.9906 -0.0054
vn -0.0094 0.9997 -0.0223
vn -0.0392 0.9991 -0.0139
vn -0.4727 0.8120 0.3425
vn 0.3019 0.9189 0.2541
vn 0.9013 -0.1990 -0.3848
vn 0.9303 0.1160 -0.3480
vn 0.7668 0.3189 0.5570
vn 0.3194 0.2250 0.9205
vn 0.3223 0.2076 0.9236
vn -0.1600 0.6047 0.7802
vn -0.3436 0.2167 0.9138
vn -0.4952 0.6264 0.6021
vn -0.4826 0.5762 0.6596
vn -0.9401 0.3409 -0.0069
vn -0.8890 0.4524 -0.0712
vn -0.8397 0.3743 -0.3936
vn -0.8402 0.3639 -0.4021
vn -0.2904 0.2220 -0.9308
vn -0.2501 0.2808 -0.9266
vn 0.0655 0.2714 -0.9602
vn 0.0701 0.2480 -0.9662
vn 0.8863 0.2224 -0.4062
vn 0.9774 0.1502 0.1485
vn 0.7365 0.6643 -0.1275
vn 0.7847 0.1715 0.5957
vn 0.7801 0.1845 0.5979
vt 0.327966 0.639719
vt 0.328026 0.640055
vt 0.327767 0.639756
vt 0.327834 0.640065
vt 0.327982 0.640441
vt 0.327606 0.640386
vt 0.327927 0.640714
vt 0.327688 0.640720
vt 0.327910 0.640942
vt 0.327879 0.641354
vt 0.327800 0.641004
vt 0.327768 0.641384
vt 0.327933 0.641691
vt 0.327830 0.641689
vt 0.327955 0.641908
vt 0.327757 0.641942
vt 0.328027 0.642534
vt 0.327847 0.642555
vt 0.327990 0.642107
vt 0.327651 0.642125
vt 0.327187 0.641383
vt 0.327050 0.641201
vt 0.327457 0.641466
vt 0.327058 0.640891
vt 0.327200 0.640644
vt 0.327669 0.640748
vt 0.327438 0.640529
vt 0.327481 0.639834
vt 0.327594 0.640107
vt 0.327262 0.639600
vt 0.328096 0.640955
vt 0.328022 0.641034
vt 0.328049 0.640911
vt 0.327986 0.640987
vt 0.327913 0.641087
vt 0.327866 0.640977
vt 0.327754 0.641140
vt 0.327725 0.641111
vt 0.327614 0.641141
vt 0.327620 0.641115
vt 0.327548 0.641044
vt 0.327579 0.641035
vt 0.327531 0.640970
vt 0.327509 0.640761
vt 0.327569 0.640754
vt 0.327520 0.640904
vt 0.327633 0.640899
vt 0.327728 0.640882
vt 0.327977 0.640859
vt 0.327992 0.640764
vt 0.326631 0.640710
vt 0.326948 0.640325
vt 0.326807 0.640808
vt 0.327110 0.640446
vt 0.327814 0.642129
vt 0.328337 0.642340
vt 0.327778 0.642356
vt 0.328332 0.642431
vt 0.326528 0.641462
vt 0.326537 0.640975
vt 0.326734 0.641467
vt 0.326724 0.640991
vt 0.327338 0.639905
vt 0.327392 0.639967
vt 0.327244 0.642002
vt 0.327167 0.642216
vt 0.326827 0.641685
vt 0.326678 0.641867
vt 0.328347 0.640889
vt 0.328083 0.641112
vt 0.327960 0.640574
vt 0.327375 0.640666
vt 0.327911 0.639782
vt 0.328608 0.639550
vt 0.328167 0.640003
vt 0.328883 0.640016
vt 0.327782 0.639548
vt 0.328041 0.639410
vt 0.327773 0.639603
vt 0.328116 0.639499
vt 0.327843 0.641800
vt 0.327397 0.641760
vt 0.327051 0.641407
vt 0.326951 0.640884
vt 0.326917 0.641080
vt 0.328870 0.642240
vt 0.328897 0.642363
vt 0.327522 0.640090
vt 0.328348 0.642107
s 1
usemtl Elf_bush_Map.018
f 1/1/1 2/2/1 14/3/1
f 14/3/2 2/2/2 16/4/2
f 2/2/3 3/5/3 16/4/3
f 16/4/4 3/5/4 8/6/4
f 19/7/5 20/8/5 3/5/5
f 3/5/6 20/8/6 8/6/6
f 4/9/7 5/10/7 9/11/7
f 9/11/8 5/10/8 10/12/8
f 5/10/9 6/13/9 10/12/9
f 10/12/10 6/13/10 11/14/10
f 6/13/11 17/15/11 11/14/11
f 11/14/12 17/15/12 18/16/12
f 1/17/13 14/18/13 7/19/13
f 7/19/14 14/18/14 12/20/14
f 18/21/15 12/22/15 11/23/15
f 11/23/16 12/22/16 10/12/16
f 13/24/17 15/25/17 20/26/17
f 20/26/18 15/25/18 8/27/18
f 13/28/19 14/3/19 15/29/19
f 15/29/20 14/3/20 16/4/20
f 13/28/21 12/30/21 14/3/21
f 15/29/22 16/4/22 8/6/22
f 17/15/23 7/19/23 18/16/23
f 18/16/24 7/19/24 12/20/24
f 4/9/25 9/11/25 19/7/25
f 19/7/26 9/11/26 20/8/26
f 20/26/27 12/22/27 13/24/27
f 12/22/28 20/26/28 10/12/28
f 10/12/29 20/26/29 9/11/29
f 21/31/30 22/32/30 34/33/30
f 34/33/31 22/32/31 35/34/31
f 22/32/32 23/35/32 35/34/32
f 35/34/33 23/35/33 28/36/33
f 24/37/34 29/38/34 23/35/34
f 23/35/35 29/38/35 28/36/35
f 24/37/36 25/39/36 29/38/36
f 29/38/37 25/39/37 30/40/37
f 25/39/38 26/41/38 30/40/38
f 30/40/39 26/41/39 31/42/39
f 26/41/40 36/43/40 31/42/40
f 21/44/41 34/45/41 27/46/41
f 27/46/42 34/45/42 32/47/42
f 36/43/43 32/47/43 31/42/43
f 31/42/44 32/47/44 30/40/44
f 33/48/45 28/36/45 29/38/45
f 33/49/46 34/33/46 28/36/46
f 28/36/47 34/33/47 35/34/47
f 33/49/48 32/50/48 34/33/48
f 36/43/49 27/46/49 32/47/49
f 29/38/50 32/47/50 33/48/50
f 32/47/51 29/38/51 30/40/51
f 38/51/52 42/52/52 59/53/52
f 59/53/53 42/52/53 58/54/53
f 63/55/54 64/56/54 47/57/54
f 47/57/55 64/56/55 49/58/55
f 46/59/56 37/60/56 61/61/56
f 61/61/57 37/60/57 60/62/57
f 38/51/58 59/53/58 37/60/58
f 37/60/59 59/53/59 60/62/59
f 50/63/60 57/64/60 42/52/60
f 42/52/61 57/64/61 58/54/61
f 63/55/62 47/57/62 62/65/62
f 62/65/63 47/57/63 51/66/63
f 61/67/64 62/65/64 46/68/64
f 46/68/65 62/65/65 51/66/65
f 53/69/66 54/70/66 56/71/66
f 56/71/67 54/70/67 43/72/67
f 53/73/68 55/74/68 54/75/68
f 54/75/69 55/74/69 45/76/69
f 41/77/70 48/78/70 66/79/70
f 66/79/71 48/78/71 65/80/71
f 54/70/72 45/81/72 43/72/72
f 45/81/73 52/82/73 43/72/73
f 52/82/74 44/83/74 43/72/74
f 43/72/75 44/83/75 40/84/75
f 39/85/76 40/84/76 44/83/76
f 65/86/77 48/87/77 64/56/77
f 64/56/78 48/87/78 49/58/78
f 41/77/70 66/79/70 50/63/70
f 50/63/79 66/79/79 57/64/79
f 57/64/80 56/88/80 58/54/80
f 58/54/81 56/88/81 43/72/81
f 59/53/82 58/54/82 40/84/82
f 40/84/83 58/54/83 43/72/83
f 59/53/84 40/84/84 60/62/84
f 60/62/85 40/84/85 39/85/85
f 44/83/86 61/61/86 39/85/86
f 39/85/87 61/61/87 60/62/87
f 44/83/88 52/82/88 61/67/88
f 61/67/89 52/82/89 62/65/89
f 45/81/90 63/55/90 52/82/90
f 52/82/91 63/55/91 62/65/91
f 64/56/92 63/55/92 55/89/92
f 55/89/93 63/55/93 45/81/93
f 55/89/94 65/86/94 64/56/94
f 66/79/95 65/80/95 53/73/95
f 53/73/96 65/80/96 55/74/96
f 66/79/97 53/73/97 57/64/97
f 57/64/98 53/73/98 56/88/98
