# Blender 4.1.0 Alpha
# www.blender.org
mtllib 021.mtl
o Tree_temp_climate_021
v 0.097758 -0.000371 0.474430
v 0.253789 -0.000371 0.321306
v 0.293937 -0.000371 -0.013815
v 0.029946 -0.000371 -0.214736
v -0.286539 -0.000371 -0.126191
v -0.268161 -0.000371 0.292523
v -0.033306 6.151596 0.197231
v -0.010854 6.154097 0.181340
v -0.004065 6.160800 0.142838
v -0.021158 6.160800 0.128336
v -0.053945 6.146481 0.142404
v -0.059304 6.139414 0.172797
v 0.068365 1.929556 0.053899
v 0.037904 1.929556 0.226656
v -0.102866 1.929556 0.290898
v -0.184913 1.929556 0.187367
v -0.143496 1.929556 -0.047525
v -0.030986 1.929556 -0.116750
v -0.197840 4.648260 0.165221
v -0.099802 4.648260 0.118889
v -0.019031 4.648260 0.166335
v -0.040790 4.648260 0.289736
v -0.138118 4.648260 0.336194
v -0.214398 4.648260 0.259124
v -0.155117 0.799408 -0.097887
v 0.010988 0.799408 -0.158344
v 0.124622 0.799408 0.078767
v 0.093928 0.799408 0.252846
v -0.010793 0.799408 0.313303
v -0.146202 0.799408 0.199681
v -0.099330 2.080108 0.027016
v 0.633968 2.028708 -0.005045
v 0.605162 2.034400 0.055043
v -0.064294 2.050814 0.127264
v 0.628446 2.113670 0.058974
v -0.015665 2.170601 0.131333
v 0.657251 2.107978 -0.001114
v -0.050701 2.199894 0.031085
v -0.109309 2.228250 0.182062
v -0.418486 2.162074 0.419986
v -0.380281 2.137020 0.416347
v -0.080935 2.099505 0.191013
v -0.388032 2.133025 0.360339
v -0.101191 2.089968 0.105248
v -0.426235 2.158080 0.363978
v -0.129565 2.218713 0.096297
v -0.749465 1.953914 0.523179
v -0.726731 1.928458 0.520402
v -0.724394 1.929012 0.493813
v -0.747127 1.954468 0.496589
v -0.119175 3.258242 0.216661
v -0.588130 3.186363 0.306930
v -0.554075 3.155908 0.303290
v -0.110257 3.126709 0.225613
v -0.562334 3.153109 0.247283
v -0.131706 3.120290 0.139848
v -0.596388 3.183564 0.250922
v -0.140624 3.251822 0.130896
v -1.002846 2.910589 0.419088
v -0.984150 2.882035 0.416311
v -0.981756 2.882235 0.389722
v -1.000452 2.910789 0.392498
v -0.080065 3.714147 0.083815
v 0.453687 3.600540 -0.008331
v 0.397910 3.550398 -0.000044
v -0.089173 3.585030 0.075395
v 0.415278 3.545789 0.091534
v -0.064681 3.578728 0.158650
v 0.471054 3.595933 0.083247
v -0.055574 3.707845 0.167070
v 0.794258 3.374527 -0.125758
v 0.776031 3.346499 -0.122281
v 0.774755 3.346695 -0.096105
v 0.792981 3.374725 -0.099581
v -0.159013 3.943710 0.150528
v -0.273254 3.830103 -0.378934
v -0.262657 3.779961 -0.323550
v -0.167047 3.814594 0.159978
v -0.171880 3.775352 -0.344708
v -0.084881 3.808292 0.132049
v -0.182477 3.825496 -0.400092
v -0.076846 3.937409 0.122599
v -0.404729 3.604091 -0.714333
v -0.400498 3.576063 -0.696266
v -0.374292 3.576258 -0.696079
v -0.378522 3.604289 -0.714145
v -0.119458 2.187892 0.104767
v -0.427177 2.136492 -0.378744
v -0.361257 2.142184 -0.388485
v -0.055968 2.158599 0.019643
v -0.371025 2.221454 -0.409983
v -0.079801 2.278385 -0.022941
v -0.436945 2.215762 -0.400241
v -0.143291 2.307678 0.062184
v -0.023592 1.895615 0.021822
v 0.076991 1.844215 0.586053
v 0.012323 1.849907 0.569978
v -0.114698 1.866322 0.076384
v 0.013176 1.929177 0.593575
v -0.108862 1.986108 0.124832
v 0.077844 1.923485 0.609650
v -0.017756 2.015401 0.070271
v -0.166146 4.524553 0.215256
v -0.445028 4.479074 0.107715
v -0.424926 4.459805 0.115805
v -0.163825 4.441331 0.222907
v -0.412890 4.458035 0.082068
v -0.150312 4.437270 0.168628
v -0.432993 4.477304 0.073978
v -0.152632 4.520492 0.160978
v -0.658333 4.354862 -0.050004
v -0.647064 4.336797 -0.045997
v -0.637823 4.336924 -0.060137
v -0.649092 4.354990 -0.064144
v -0.078070 4.124916 0.160096
v 0.022514 4.242473 0.714333
v -0.042154 4.243163 0.697294
v -0.169175 4.113046 0.220876
v -0.041301 4.325866 0.696423
v -0.163339 4.241798 0.231779
v 0.023367 4.325176 0.713462
v -0.072233 4.253668 0.171000
v -0.088188 4.722422 0.209762
v 0.255310 4.716048 0.271956
v 0.234104 4.690732 0.266412
v -0.079036 4.626907 0.199065
v 0.228015 4.686738 0.307182
v -0.082063 4.620053 0.263395
v 0.249221 4.712055 0.312726
v -0.091215 4.715569 0.274092
v 0.548411 4.608942 0.402508
v 0.537803 4.586447 0.399781
v 0.530396 4.585081 0.417775
v 0.541003 4.607576 0.420502
vn 0.4860 0.2351 0.8417
vn 0.4859 0.2351 0.8418
vn 0.4860 0.2351 0.8418
vn 0.9720 0.2042 0.1164
vn 0.9719 0.2046 0.1164
vn 0.5912 0.2166 -0.7769
vn 0.5913 0.2166 -0.7768
vn 0.5913 0.2167 -0.7768
vn -0.2689 0.0611 -0.9612
vn -0.2689 0.0614 -0.9612
vn -0.9864 0.1615 0.0296
vn -0.6319 0.1831 0.7531
vn -0.6319 0.1832 0.7531
vn 0.4152 -0.0091 0.9097
vn 0.9845 0.0245 0.1736
vn 0.8624 0.0653 -0.5021
vn -0.5236 0.0427 -0.8509
vn -0.5232 0.0564 -0.8503
vn -0.5234 0.0505 -0.8506
vn -0.9848 -0.0061 -0.1736
vn -0.7836 -0.0203 0.6210
vn -0.7836 -0.0205 0.6210
vn -0.7836 -0.0198 0.6210
vn 0.4302 0.0533 0.9012
vn 0.4302 0.0519 0.9013
vn 0.9850 -0.0068 0.1726
vn 0.9849 -0.0062 0.1731
vn 0.9848 -0.0066 0.1735
vn 0.5064 -0.0206 -0.8621
vn 0.5064 -0.0213 -0.8620
vn -0.4271 0.0273 -0.9038
vn -0.9806 0.0920 -0.1729
vn -0.9807 0.0917 -0.1729
vn -0.7062 0.1135 0.6989
vn -0.7068 0.1130 0.6983
vn -0.7077 0.1137 0.6973
vn 0.4994 0.0457 0.8651
vn 0.4995 0.0448 0.8652
vn 0.4995 0.0457 0.8651
vn 0.9835 0.0518 0.1734
vn 0.9834 0.0532 0.1734
vn 0.9835 0.0519 0.1734
vn 0.9012 0.0366 -0.4318
vn 0.9012 0.0350 -0.4319
vn 0.9012 0.0366 -0.4319
vn -0.3419 0.0214 -0.9395
vn -0.3419 0.0213 -0.9395
vn -0.9990 -0.0333 0.0300
vn -0.6423 -0.0366 0.7656
vn -0.6423 -0.0367 0.7656
vn -0.6423 -0.0367 0.7655
vn -0.0191 0.9914 0.1291
vn -0.3787 0.9238 0.0565
vn -0.0671 -0.9958 0.0622
vn 0.1050 -0.0793 0.9913
vn 0.1049 -0.0793 0.9913
vn 0.1053 -0.0794 0.9913
vn 0.0818 0.9951 -0.0551
vn -0.0375 0.0601 -0.9975
vn -0.0374 0.0611 -0.9974
vn 0.8570 -0.2731 0.4370
vn 0.8570 -0.2730 0.4371
vn 0.8570 -0.2734 0.4367
vn 0.4306 0.5530 0.7133
vn 0.4307 0.5527 0.7135
vn -0.0645 -0.9947 0.0799
vn -0.5172 -0.7219 -0.4597
vn -0.5175 -0.7217 -0.4597
vn -0.2322 0.9720 -0.0372
vn 0.2354 0.1051 0.9662
vn 0.2350 0.1053 0.9663
vn 0.5217 -0.8526 0.0281
vn -0.2842 -0.1511 -0.9468
vn -0.2846 -0.1511 -0.9467
vn -0.5444 0.8382 -0.0304
vn -0.5450 0.8379 -0.0306
vn -0.7478 -0.6592 -0.0795
vn -0.7477 -0.6593 -0.0792
vn -0.7478 -0.6591 -0.0795
vn 0.1765 0.0802 0.9810
vn -0.0554 -0.9968 0.0580
vn -0.2506 -0.1662 -0.9537
vn -0.1549 0.9876 -0.0265
vn 0.2270 0.0541 0.9724
vn 0.2273 0.0542 0.9723
vn 0.5446 -0.8376 0.0427
vn -0.2712 -0.0843 -0.9588
vn -0.5698 0.8206 -0.0451
vn -0.8375 -0.5406 -0.0795
vn -0.8375 -0.5407 -0.0795
vn -0.1657 0.0213 -0.9860
vn -0.0764 -0.9964 -0.0357
vn 0.1391 0.0090 0.9902
vn 0.1394 0.0090 0.9902
vn 0.2093 0.9778 0.0095
vn -0.2853 0.0669 -0.9561
vn -0.4788 -0.8778 -0.0168
vn -0.4793 -0.8775 -0.0168
vn 0.3938 -0.1437 0.9079
vn 0.3945 -0.1437 0.9076
vn 0.5746 0.8182 0.0218
vn 0.8400 -0.5407 0.0450
vn -0.9782 0.0213 0.2065
vn -0.9783 0.0214 0.2062
vn -0.0325 -0.9964 0.0778
vn 0.9836 0.0086 -0.1801
vn 0.9836 0.0090 -0.1801
vn 0.9836 0.0085 -0.1800
vn 0.0008 0.9778 -0.2095
vn -0.9435 0.0666 0.3246
vn -0.9434 0.0669 0.3247
vn 0.0031 -0.8778 0.4790
vn 0.8906 -0.1437 -0.4316
vn 0.8904 -0.1436 -0.4319
vn -0.0021 0.8183 -0.5747
vn -0.0020 0.8182 -0.5750
vn 0.0101 -0.5407 -0.8412
vn 0.0928 -0.9946 0.0467
vn 0.8004 -0.0626 -0.5962
vn 0.8004 -0.0626 -0.5963
vn 0.8003 -0.0634 -0.5962
vn -0.0966 0.9926 -0.0734
vn -0.8470 0.0394 0.5301
vn -0.8469 0.0397 0.5303
vn -0.1175 -0.2731 -0.9548
vn -0.1175 -0.2734 -0.9547
vn -0.0680 -0.9946 -0.0785
vn -0.9671 -0.0626 0.2468
vn -0.9670 -0.0626 0.2468
vn 0.0614 0.9926 0.1046
vn 0.0612 0.9927 0.1041
vn 0.9850 0.0394 -0.1679
vn -0.2546 -0.2734 0.9276
vn -0.2546 -0.2731 0.9277
vn -0.3617 0.0140 0.9322
vn -0.0802 -0.9965 0.0237
vn 0.3065 -0.0785 -0.9486
vn 0.3069 -0.0787 -0.9485
vn -0.1225 0.9879 -0.0956
vn -0.5313 -0.1465 0.8344
vn -0.5319 -0.1464 0.8340
vn -0.5315 -0.1465 0.8343
vn 0.3464 -0.9124 0.2181
vn 0.4871 0.1123 -0.8661
vn 0.4871 0.1121 -0.8661
vn -0.3640 0.9026 -0.2298
vn -0.7020 -0.5407 -0.4636
vn -0.0680 -0.9734 0.2188
vn -0.9670 0.0132 0.2543
vn -0.9670 0.0130 0.2544
vn 0.0614 0.9792 -0.1933
vn 0.0614 0.9791 -0.1938
vn 0.9850 -0.0123 -0.1720
vn 0.9850 -0.0123 -0.1721
vn -0.2546 0.0128 0.9669
vn 0.1790 0.0646 -0.9817
vn 0.1789 0.0648 -0.9817
vn 0.2125 -0.9751 -0.0638
vn -0.1132 -0.1211 0.9862
vn -0.0008 0.9952 0.0974
vn 0.3845 -0.0693 -0.9205
vn -0.2500 -0.9522 -0.1752
vn -0.3307 0.0420 0.9428
vn 0.2707 0.9451 0.1832
vn 0.8435 -0.4358 0.3141
vn 0.6866 0.1983 0.6995
vn 0.6865 0.1983 0.6996
vn 0.6865 0.1982 0.6996
vn 0.9676 0.1861 0.1706
vn 0.9676 0.1860 0.1706
vn 0.9007 0.0520 -0.4314
vn 0.9006 0.0518 -0.4316
vn 0.9005 0.0521 -0.4316
vn -0.3407 0.0883 -0.9360
vn -0.9869 0.1555 0.0433
vn -0.4420 0.1191 0.8891
vn -0.4421 0.1188 0.8891
vn 0.4308 -0.0091 0.9024
vn 0.4307 -0.0094 0.9024
vn 0.5058 0.0519 -0.8611
vn -0.4263 0.0674 -0.9021
vn -0.7105 -0.0259 0.7032
vn 0.5735 0.0475 0.8178
vn 0.5735 0.0488 0.8178
vn 0.9850 -0.0062 0.1724
vn 0.6468 -0.0182 -0.7624
vn -0.4040 0.0273 -0.9143
vn -0.4040 0.0274 -0.9143
vn -0.4040 0.0267 -0.9144
vn -0.9841 0.0916 -0.1521
vn -0.9841 0.0917 -0.1521
vn -0.9841 0.0922 -0.1521
vn -0.7083 0.1130 0.6968
vn 0.4146 0.0518 0.9085
vn 0.9834 0.0535 0.1734
vn 0.8630 0.0520 -0.5025
vn 0.8631 0.0502 -0.5026
vn 0.8631 0.0501 -0.5025
vn -0.5236 0.0426 -0.8509
vn -0.9846 0.0183 -0.1736
vn -0.9847 0.0184 -0.1736
vn -0.7836 -0.0214 0.6210
vn -0.1260 0.9808 0.1485
vn -0.5043 0.8565 0.1100
vn -0.0518 -0.9633 -0.2635
vn -0.0521 -0.9632 -0.2636
vn -0.0523 -0.9632 -0.2637
vn 0.1043 -0.0765 0.9916
vn 0.1047 -0.0762 0.9916
vn 0.1356 0.9627 0.2339
vn -0.0405 0.0504 -0.9979
vn -0.0401 0.0502 -0.9979
vn -0.0401 0.0505 -0.9979
vn 0.6056 0.1872 0.7734
vn 0.6056 0.1876 0.7733
vn 0.6057 0.1869 0.7734
vn -0.0420 -0.9919 0.1202
vn -0.6355 -0.1924 -0.7478
vn -0.2455 0.9681 -0.0500
vn -0.2455 0.9681 -0.0497
vn 0.1954 0.1572 0.9680
vn 0.1957 0.1573 0.9680
vn 0.5160 -0.8565 -0.0103
vn -0.2420 -0.2322 -0.9421
vn -0.5295 0.8482 0.0128
vn 0.1769 0.0788 0.9811
vn -0.0539 -0.9947 0.0879
vn -0.2423 -0.0822 -0.9667
vn -0.1579 0.9869 -0.0344
vn 0.1929 0.0996 0.9761
vn 0.1932 0.0994 0.9761
vn 0.5334 -0.8451 -0.0364
vn -0.2359 -0.1490 -0.9603
vn -0.2354 -0.1489 -0.9604
vn -0.5460 0.8369 0.0387
vn -0.1474 0.0747 -0.9862
vn -0.0761 -0.9957 -0.0531
vn -0.0758 -0.9957 -0.0531
vn 0.1413 -0.0743 0.9872
vn 0.2102 0.9776 0.0122
vn -0.2479 0.1168 -0.9617
vn -0.4661 -0.8836 0.0441
vn -0.4664 -0.8835 0.0440
vn 0.3503 -0.2395 0.9055
vn 0.3498 -0.2394 0.9057
vn 0.5379 0.8409 -0.0597
vn 0.5376 0.8411 -0.0596
vn 0.8400 -0.5406 0.0451
vn -0.9792 0.0748 0.1886
vn -0.9793 0.0747 0.1883
vn -0.0499 -0.9957 0.0779
vn 0.9804 -0.0743 -0.1822
vn 0.0034 0.9776 -0.2105
vn -0.9506 0.1168 0.2876
vn 0.0633 -0.8835 0.4641
vn 0.8904 -0.2394 -0.3872
vn -0.0819 0.8411 -0.5347
vn 0.0105 -0.5403 -0.8414
vn -0.1963 -0.9628 0.1855
vn -0.1959 -0.9630 0.1853
vn 0.8016 -0.0516 -0.5956
vn 0.8017 -0.0519 -0.5955
vn 0.1011 0.9615 -0.2557
vn 0.1012 0.9615 -0.2554
vn -0.8445 0.0228 0.5351
vn -0.8445 0.0222 0.5351
vn 0.2517 -0.9630 -0.0968
vn -0.9679 -0.0522 0.2457
vn -0.9680 -0.0519 0.2457
vn -0.1908 0.9615 0.1977
vn 0.9846 0.0228 -0.1736
vn 0.9846 0.0228 -0.1735
vn -0.3738 0.0749 0.9245
vn -0.3739 0.0746 0.9245
vn -0.0953 -0.9942 0.0507
vn 0.3065 -0.0787 -0.9486
vn -0.1209 0.9872 -0.1040
vn -0.5116 -0.1810 0.8400
vn 0.3750 -0.9092 0.1812
vn 0.3748 -0.9092 0.1814
vn 0.4784 0.1347 -0.8678
vn 0.4783 0.1352 -0.8677
vn -0.3886 0.9025 -0.1856
vn -0.3885 0.9025 -0.1859
vn 0.2517 -0.9486 0.1920
vn -0.9679 0.0227 0.2501
vn -0.1908 0.9770 -0.0952
vn 0.9846 -0.0297 -0.1724
vn 0.9846 -0.0300 -0.1723
vn 0.1838 0.1268 -0.9748
vn 0.2219 -0.9706 -0.0930
vn -0.1132 -0.1213 0.9861
vn -0.0007 0.9944 0.1059
vn 0.3688 -0.1068 -0.9233
vn -0.2715 -0.9531 -0.1339
vn -0.3250 0.0656 0.9434
vn 0.2862 0.9485 0.1356
vt 0.031975 0.121510
vt 0.132338 0.141818
vt 0.129625 0.157334
vt 0.039557 0.096660
vt 0.058698 0.059549
vt 0.034543 0.300210
vt 0.028561 0.260421
vt 0.132696 0.275353
vt 0.024097 0.220931
vt 0.127807 0.242934
vt 0.127769 0.180747
vt 0.126504 0.219694
vt 0.025130 0.170342
vt 0.274270 0.154601
vt 0.615131 0.180636
vt 0.272118 0.173602
vt 0.276737 0.132820
vt 0.617306 0.165147
vt 0.269753 0.235133
vt 0.612856 0.232443
vt 0.271986 0.259522
vt 0.269324 0.219026
vt 0.612258 0.218974
vt 0.270795 0.189661
vt 0.612337 0.207207
vt 0.613315 0.193859
vt 0.802660 0.208887
vt 0.803240 0.205389
vt 0.803172 0.221817
vt 0.613777 0.243797
vt 0.801367 0.217419
vt 0.800781 0.213441
vt 0.138646 0.120767
vt 0.808732 0.217828
vt 0.808076 0.214420
vt 0.311035 0.364182
vt 0.403207 0.365056
vt 0.399154 0.372304
vt 0.318847 0.320061
vt 0.401485 0.337094
vt 0.402008 0.347442
vt 0.321302 0.336077
vt 0.405490 0.354947
vt 0.316184 0.348822
vt 0.412253 0.370105
vt 0.186239 0.362369
vt 0.235417 0.364211
vt 0.232271 0.368869
vt 0.192706 0.328400
vt 0.235227 0.346397
vt 0.231308 0.352074
vt 0.184798 0.335907
vt 0.233588 0.357357
vt 0.182751 0.352105
vt 0.285697 0.366124
vt 0.284917 0.370345
vt 0.285679 0.356189
vt 0.283775 0.358923
vt 0.284193 0.362990
vt 0.288115 0.371366
vt 0.151965 0.075427
vt 0.211983 0.072738
vt 0.209487 0.077753
vt 0.157163 0.037227
vt 0.210931 0.053823
vt 0.209082 0.060677
vt 0.154488 0.047958
vt 0.211436 0.065726
vt 0.152277 0.064325
vt 0.275499 0.072706
vt 0.275312 0.077002
vt 0.275517 0.062108
vt 0.274285 0.065136
vt 0.274438 0.069444
vt 0.278603 0.077548
vt 0.299509 0.084796
vt 0.368572 0.084718
vt 0.364899 0.093044
vt 0.303666 0.046525
vt 0.365927 0.054397
vt 0.363559 0.065566
vt 0.303273 0.057515
vt 0.367534 0.073510
vt 0.300405 0.073838
vt 0.421317 0.079012
vt 0.421118 0.083301
vt 0.421151 0.067774
vt 0.419892 0.070783
vt 0.420421 0.075537
vt 0.424357 0.083805
vt 0.040509 0.367364
vt 0.109572 0.367287
vt 0.105899 0.375613
vt 0.044666 0.329093
vt 0.106927 0.336966
vt 0.104558 0.348135
vt 0.044273 0.340083
vt 0.108534 0.356079
vt 0.041405 0.356406
vt 0.162317 0.361580
vt 0.162118 0.365869
vt 0.162150 0.350343
vt 0.160892 0.353351
vt 0.161421 0.358106
vt 0.165356 0.366373
vt 0.431394 0.380625
vt 0.503265 0.375279
vt 0.500381 0.383067
vt 0.437362 0.336208
vt 0.500291 0.347123
vt 0.501103 0.357450
vt 0.440256 0.352147
vt 0.504532 0.364995
vt 0.434969 0.364829
vt 0.512981 0.378870
vt 0.532604 0.376636
vt 0.604475 0.371290
vt 0.601591 0.379079
vt 0.538572 0.332219
vt 0.601501 0.343134
vt 0.602313 0.353461
vt 0.541467 0.348158
vt 0.605742 0.361006
vt 0.536180 0.360840
vt 0.614191 0.374881
vt 0.480631 0.080369
vt 0.518038 0.077561
vt 0.516401 0.080745
vt 0.483042 0.056170
vt 0.516665 0.065507
vt 0.516600 0.069947
vt 0.482213 0.063079
vt 0.518452 0.073100
vt 0.481289 0.073410
vt 0.554304 0.075358
vt 0.554171 0.078068
vt 0.553701 0.068627
vt 0.553572 0.070679
vt 0.554045 0.073273
vt 0.556253 0.078430
vt 0.595519 0.093635
vt 0.667390 0.088289
vt 0.664506 0.096077
vt 0.601487 0.049218
vt 0.664416 0.060132
vt 0.665228 0.070460
vt 0.604381 0.065157
vt 0.668657 0.078005
vt 0.599095 0.077839
vt 0.677106 0.091879
vt 0.693994 0.092311
vt 0.737237 0.089749
vt 0.735289 0.093396
vt 0.697218 0.064414
vt 0.735871 0.075806
vt 0.735715 0.080931
vt 0.696135 0.072376
vt 0.737796 0.084606
vt 0.694880 0.084288
vt 0.779151 0.087865
vt 0.778949 0.090991
vt 0.778578 0.080082
vt 0.778391 0.082448
vt 0.778891 0.085452
vt 0.781346 0.091447
vt 0.804785 0.200656
vt 0.803210 0.224621
vt 0.805983 0.221986
vt 0.803365 0.213998
vt 0.314962 0.377315
vt 0.408166 0.377418
vt 0.185914 0.378897
vt 0.288899 0.367132
vt 0.154337 0.091805
vt 0.278789 0.073271
vt 0.302379 0.100857
vt 0.424543 0.079604
vt 0.043378 0.383426
vt 0.165543 0.362173
vt 0.437323 0.392984
vt 0.510074 0.386725
vt 0.538533 0.388995
vt 0.611284 0.382736
vt 0.482276 0.090692
vt 0.556385 0.075723
vt 0.601448 0.105994
vt 0.674199 0.099735
vt 0.695705 0.104260
vt 0.781548 0.088323
s 1
usemtl Material_#26.020
f 1/1/1 28/2/2 29/3/3
f 2/4/4 3/5/5 28/2/5
f 3/6/6 4/7/7 27/8/8
f 4/7/9 5/9/10 26/10/9
f 5/9/11 30/11/11 25/12/11
f 6/13/12 29/3/13 30/11/12
f 14/14/14 22/15/14 15/16/14
f 13/17/15 21/18/15 14/14/15
f 18/19/16 20/20/16 13/21/16
f 17/22/17 19/23/18 18/19/19
f 16/24/20 24/25/20 17/22/20
f 15/16/21 23/26/22 16/24/23
f 22/15/24 7/27/25 23/26/24
f 21/18/26 8/28/27 22/15/28
f 20/20/29 10/29/30 21/30/29
f 19/23/31 11/31/31 20/20/31
f 24/25/32 12/32/33 19/23/32
f 23/26/34 7/27/35 24/25/36
f 28/2/37 14/14/38 29/3/39
f 27/33/40 13/17/41 28/2/42
f 26/10/43 13/21/44 27/8/45
f 25/12/46 18/19/47 26/10/47
f 30/11/48 16/24/48 25/12/48
f 29/3/49 15/16/50 30/11/51
f 8/34/52 10/29/52 7/35/52
f 10/29/53 11/31/53 7/35/53
f 31/36/54 32/37/54 33/38/54
f 34/39/55 33/40/56 35/41/57
f 36/42/58 35/41/58 37/43/58
f 38/44/59 37/43/60 32/37/60
f 32/37/61 37/45/62 33/38/63
f 39/46/64 40/47/65 41/48/65
f 42/49/66 41/50/66 43/51/66
f 44/52/67 43/51/68 45/53/68
f 46/54/69 45/53/69 40/47/69
f 40/47/70 47/55/71 48/56/71
f 41/50/72 48/57/72 49/58/72
f 43/51/73 49/58/74 50/59/74
f 45/53/75 50/59/76 47/55/76
f 49/60/77 48/56/78 47/55/79
f 51/61/80 52/62/80 53/63/80
f 54/64/81 53/65/81 55/66/81
f 56/67/82 55/66/82 57/68/82
f 58/69/83 57/68/83 52/62/83
f 52/62/84 59/70/85 60/71/85
f 53/65/86 60/72/86 61/73/86
f 55/66/87 61/73/87 62/74/87
f 57/68/88 62/74/88 59/70/88
f 61/75/89 60/71/90 59/70/89
f 63/76/91 64/77/91 65/78/91
f 66/79/92 65/80/92 67/81/92
f 68/82/93 67/81/94 69/83/94
f 70/84/95 69/83/95 64/77/95
f 64/77/96 71/85/96 72/86/96
f 65/80/97 72/87/98 73/88/98
f 67/81/99 73/88/100 74/89/100
f 69/83/101 74/89/101 71/85/101
f 73/90/102 72/86/102 71/85/102
f 75/91/103 76/92/104 77/93/104
f 78/94/105 77/95/105 79/96/105
f 80/97/106 79/96/107 81/98/108
f 82/99/109 81/98/109 76/92/109
f 76/92/110 83/100/111 84/101/111
f 77/95/112 84/102/112 85/103/112
f 79/96/113 85/103/114 86/104/114
f 81/98/115 86/104/116 83/100/116
f 85/105/117 84/101/117 83/100/117
f 87/106/118 88/107/118 89/108/118
f 90/109/119 89/110/120 91/111/121
f 92/112/122 91/111/122 93/113/122
f 94/114/123 93/113/124 88/107/124
f 88/107/125 93/115/126 89/108/126
f 95/116/127 96/117/127 97/118/127
f 98/119/128 97/120/129 99/121/129
f 100/122/130 99/121/131 101/123/130
f 102/124/132 101/123/132 96/117/132
f 96/117/133 101/125/134 97/118/133
f 103/126/135 104/127/135 105/128/135
f 106/129/136 105/130/136 107/131/136
f 108/132/137 107/131/138 109/133/138
f 110/134/139 109/133/139 104/127/139
f 104/127/140 111/135/141 112/136/142
f 105/130/143 112/137/143 113/138/143
f 107/131/144 113/138/145 114/139/145
f 109/133/146 114/139/146 111/135/146
f 113/140/147 112/136/147 111/135/147
f 115/141/148 116/142/148 117/143/148
f 118/144/149 117/145/150 119/146/150
f 120/147/151 119/146/152 121/148/152
f 122/149/153 121/148/154 116/142/154
f 116/142/155 121/150/155 117/143/155
f 123/151/156 124/152/157 125/153/157
f 126/154/158 125/155/158 127/156/158
f 128/157/159 127/156/159 129/158/159
f 130/159/160 129/158/160 124/152/160
f 124/152/161 131/160/161 132/161/161
f 125/155/162 132/162/162 133/163/162
f 127/156/163 133/163/163 134/164/163
f 129/158/164 134/164/164 131/160/164
f 133/165/165 132/161/165 131/160/165
f 1/1/166 2/4/167 28/2/168
f 3/5/169 27/33/170 28/2/169
f 4/7/171 26/10/172 27/8/173
f 5/9/174 25/12/174 26/10/174
f 5/9/175 6/13/175 30/11/175
f 6/13/176 1/1/176 29/3/177
f 22/15/178 23/26/179 15/16/179
f 21/18/15 22/15/15 14/14/15
f 20/20/180 21/30/180 13/21/180
f 19/23/181 20/20/181 18/19/181
f 24/25/20 19/23/20 17/22/20
f 23/26/182 24/25/182 16/24/182
f 22/15/183 8/28/184 7/27/184
f 21/18/26 9/166/185 8/28/27
f 10/29/186 9/167/186 21/30/186
f 11/31/187 10/29/188 20/20/189
f 12/32/190 11/31/191 19/23/192
f 7/27/35 12/32/193 24/25/36
f 14/14/194 15/16/194 29/3/194
f 13/17/41 14/14/195 28/2/42
f 26/10/196 18/19/197 13/21/198
f 25/12/199 17/22/17 18/19/19
f 16/24/200 17/22/201 25/12/201
f 15/16/21 16/24/23 30/11/202
f 8/34/203 9/168/203 10/29/203
f 11/31/204 12/169/204 7/35/204
f 33/38/205 34/170/206 31/36/207
f 35/41/208 36/42/209 34/39/209
f 37/43/210 38/44/210 36/42/210
f 32/37/211 31/36/212 38/44/213
f 37/45/62 35/171/63 33/38/63
f 41/48/214 42/172/215 39/46/216
f 43/51/217 44/52/217 42/49/217
f 45/53/218 46/54/218 44/52/218
f 40/47/219 39/46/220 46/54/220
f 48/56/221 41/48/222 40/47/222
f 49/58/223 43/51/223 41/50/223
f 50/59/224 45/53/224 43/51/224
f 47/55/225 40/47/225 45/53/225
f 47/55/79 50/173/79 49/60/77
f 53/63/226 54/174/226 51/61/226
f 55/66/227 56/67/227 54/64/227
f 57/68/228 58/69/228 56/67/228
f 52/62/229 51/61/229 58/69/229
f 60/71/230 53/63/231 52/62/231
f 61/73/232 55/66/232 53/65/232
f 62/74/233 57/68/234 55/66/234
f 59/70/235 52/62/235 57/68/235
f 59/70/89 62/175/89 61/75/89
f 65/78/236 66/176/236 63/76/236
f 67/81/237 68/82/238 66/79/238
f 69/83/239 70/84/239 68/82/239
f 64/77/240 63/76/240 70/84/240
f 72/86/241 65/78/241 64/77/241
f 73/88/242 67/81/243 65/80/243
f 74/89/244 69/83/245 67/81/245
f 71/85/246 64/77/247 69/83/247
f 71/85/102 74/177/248 73/90/102
f 77/93/249 78/178/250 75/91/250
f 79/96/251 80/97/251 78/94/251
f 81/98/252 82/99/252 80/97/252
f 76/92/253 75/91/253 82/99/253
f 84/101/254 77/93/254 76/92/254
f 85/103/255 79/96/255 77/95/255
f 86/104/256 81/98/256 79/96/256
f 83/100/257 76/92/257 81/98/257
f 83/100/117 86/179/258 85/105/117
f 89/108/259 90/180/260 87/106/260
f 91/111/261 92/112/262 90/109/262
f 93/113/263 94/114/264 92/112/264
f 88/107/265 87/106/265 94/114/266
f 93/115/126 91/181/126 89/108/126
f 97/118/267 98/182/267 95/116/267
f 99/121/268 100/122/269 98/119/269
f 101/123/270 102/124/270 100/122/270
f 96/117/271 95/116/272 102/124/272
f 101/125/134 99/183/134 97/118/133
f 105/128/273 106/184/274 103/126/274
f 107/131/275 108/132/275 106/129/275
f 109/133/276 110/134/276 108/132/276
f 104/127/277 103/126/277 110/134/277
f 112/136/278 105/128/278 104/127/278
f 113/138/279 107/131/280 105/130/280
f 114/139/281 109/133/282 107/131/282
f 111/135/283 104/127/284 109/133/284
f 111/135/147 114/185/147 113/140/147
f 117/143/285 118/186/285 115/141/285
f 119/146/286 120/147/286 118/144/286
f 121/148/287 122/149/287 120/147/287
f 116/142/288 115/141/289 122/149/289
f 121/150/155 119/187/155 117/143/155
f 125/153/290 126/188/290 123/151/290
f 127/156/291 128/157/291 126/154/291
f 129/158/292 130/159/292 128/157/292
f 124/152/293 123/151/293 130/159/293
f 132/161/294 125/153/294 124/152/294
f 133/163/295 127/156/295 125/155/295
f 134/164/296 129/158/296 127/156/296
f 131/160/297 124/152/297 129/158/297
f 131/160/165 134/189/165 133/165/165
