# Blender 4.1.0 Alpha
# www.blender.org
mtllib 018.mtl
o Tree_temp_climate_018
v 0.202793 0.000000 0.000000
v 0.101397 -0.000000 -0.175624
v -0.101397 -0.000000 -0.175624
v -0.202793 0.000000 0.000000
v -0.101397 0.000000 0.175624
v 0.101397 0.000000 0.175624
v 0.202793 1.592589 -0.000000
v 0.101397 1.592589 -0.175624
v -0.101397 1.592589 -0.175624
v -0.202793 1.592589 -0.000000
v -0.101397 1.592589 0.175624
v 0.101397 1.592589 0.175624
v -0.209017 0.841807 -0.102654
v -0.006223 0.841807 -0.102654
v 0.095174 0.841807 0.072971
v -0.006223 0.841807 0.248595
v -0.209017 0.841807 0.248595
v -0.310413 0.841807 0.072971
v 0.748619 3.721130 -0.000000
v 0.530450 3.789547 -0.530079
v 0.001097 3.817267 -0.749645
v -0.529354 3.788051 -0.530079
v -0.747235 3.871394 -0.000000
v -0.527969 3.859912 0.530079
v 0.000000 3.760332 0.749645
v 0.529354 3.732612 0.530079
v 0.165800 5.436061 -0.000000
v 0.143002 5.437254 -0.055115
v 0.087963 5.440136 -0.077944
v 0.032924 5.443019 -0.055115
v 0.010126 5.444212 -0.000000
v 0.032924 5.443019 0.055114
v 0.087963 5.440136 0.077943
v 0.143002 5.437254 0.055114
v -0.000000 3.760332 -0.000000
v 0.089795 5.475123 -0.000000
v 0.053398 4.780051 -0.263009
v 0.239118 4.770325 -0.185975
v 0.316046 4.766297 -0.000000
v 0.239118 4.770325 0.185975
v 0.053398 4.780051 0.263008
v -0.132323 4.789776 0.185975
v -0.209251 4.793804 -0.000000
v -0.132323 4.789776 -0.185975
v 0.357918 4.197519 -0.334566
v 0.496310 4.190272 -0.000000
v 0.357918 4.197519 0.334566
v 0.023810 4.215014 0.473148
v -0.310299 4.232510 0.334566
v -0.448691 4.239757 -0.000000
v -0.310299 4.232510 -0.334566
v 0.023810 4.215014 -0.473148
v 0.904189 2.991230 0.001291
v 0.638454 3.062306 -0.638442
v -0.000591 3.087271 -0.903924
v -0.638666 3.054185 -0.639663
v -0.901995 2.982430 -0.000459
v -0.638454 3.002919 0.638442
v -0.000915 3.040802 0.903352
v 0.639354 2.982323 0.639923
v 0.270668 4.218936 -0.010481
v 0.172606 4.211312 -0.248211
v -0.064617 4.197216 -0.346782
v -0.302040 4.184905 -0.248452
v -0.400583 4.181591 -0.010822
v -0.302521 4.189214 0.226908
v -0.065298 4.203310 0.325479
v 0.172124 4.215621 0.227149
v -0.000000 3.032613 -0.000000
v 0.420431 3.480045 -0.448058
v 0.603777 3.494300 -0.003574
v 0.419531 3.488103 0.440723
v -0.024379 3.465085 0.624570
v -0.467915 3.438729 0.440272
v -0.651261 3.424475 -0.004212
v -0.467014 3.430672 -0.448509
v -0.023105 3.453690 -0.632356
v 1.080591 2.346951 -0.003125
v 0.768355 2.219868 -0.768806
v -0.004929 2.275557 -1.088632
v -0.773284 2.264791 -0.769913
v -1.086618 2.193877 0.000649
v -0.768355 2.220531 0.768806
v 0.000000 2.246991 1.086606
v 0.762328 2.358186 0.765411
v 0.468030 3.638641 -0.034973
v 0.320964 3.626325 -0.389932
v -0.034087 3.614098 -0.536785
v -0.389137 3.609123 -0.389508
v -0.536204 3.614315 -0.034373
v -0.389137 3.626631 0.320585
v -0.034087 3.638858 0.467439
v 0.320964 3.643833 0.320161
v -0.000000 2.220200 -0.000000
v 0.536745 2.764011 -0.563669
v 0.764535 2.783088 -0.013879
v 0.536745 2.791129 0.536184
v -0.013187 2.783424 0.764300
v -0.563120 2.764486 0.536841
v -0.790909 2.745409 -0.012950
v -0.563120 2.737368 -0.563012
v -0.013187 2.745073 -0.791128
v 1.210275 1.033796 -0.003817
v 0.858668 1.196991 -0.857929
v 0.003730 1.374765 -1.209880
v -0.854572 1.385409 -0.854514
v -1.213456 1.253326 0.000000
v -0.858668 1.219213 0.857929
v -0.000884 1.187565 1.213294
v 0.854237 1.017201 0.854112
v 0.599426 2.779822 0.046432
v 0.435482 2.795586 -0.350010
v 0.039106 2.810210 -0.514222
v -0.357508 2.815129 -0.350010
v -0.522030 2.807461 0.046432
v -0.358085 2.791697 0.442874
v 0.038290 2.777073 0.607085
v 0.434904 2.772154 0.442874
v -0.000000 1.223420 -0.000000
v 0.649780 1.773185 -0.619595
v 0.912692 1.747905 0.016164
v 0.648854 1.735608 0.651924
v 0.012817 1.743496 0.915265
v -0.622835 1.766949 0.651924
v -0.885748 1.792228 0.016164
v -0.621909 1.804525 -0.619595
v 0.014127 1.796637 -0.882936
vn 0.8559 0.1523 -0.4942
vn 0.8559 0.1527 -0.4941
vn -0.0000 0.0864 -0.9963
vn -0.8641 -0.0672 -0.4989
vn -0.8559 -0.1523 0.4942
vn -0.8559 -0.1526 0.4941
vn -0.0000 -0.0864 0.9963
vn -0.0000 -0.0860 0.9963
vn 0.8641 0.0672 0.4989
vn 0.8534 -0.1702 -0.4927
vn 0.8533 -0.1708 -0.4926
vn -0.0000 -0.0971 -0.9953
vn -0.0000 -0.0961 -0.9954
vn -0.8636 0.0758 -0.4985
vn -0.8636 0.0748 -0.4986
vn -0.8636 0.0753 -0.4986
vn -0.8534 0.1702 0.4927
vn -0.8533 0.1708 0.4926
vn -0.0000 0.0971 0.9953
vn -0.0000 0.0962 0.9954
vn -0.0000 0.0967 0.9953
vn 0.8636 -0.0753 0.4986
vn 0.8636 -0.0749 0.4986
vn -0.0523 -0.9986 -0.0000
vn -0.0528 -0.9986 -0.0000
vn 0.8427 0.4546 -0.2884
vn 0.8429 0.4544 -0.2882
vn 0.8429 0.4544 -0.2883
vn 0.3501 0.5217 -0.7780
vn 0.3500 0.5217 -0.7780
vn -0.3453 0.5489 -0.7612
vn -0.7452 0.5400 -0.3913
vn -0.7452 0.5401 -0.3912
vn -0.7453 0.5399 -0.3912
vn -0.7363 0.5976 0.3174
vn -0.7361 0.5978 0.3175
vn -0.7361 0.5978 0.3174
vn -0.2287 0.5528 0.8013
vn -0.2287 0.5526 0.8014
vn 0.3591 0.4703 0.8061
vn 0.3592 0.4703 0.8061
vn 0.3591 0.4702 0.8062
vn 0.8305 0.4459 0.3339
vn 0.8305 0.4457 0.3339
vn 0.8305 0.4458 0.3340
vn -0.1853 -0.9827 -0.0000
vn -0.1464 -0.9847 0.0947
vn -0.1463 -0.9847 0.0943
vn -0.0521 -0.9958 -0.0757
vn -0.0518 -0.9958 -0.0758
vn 0.0523 0.9986 -0.0000
vn -0.1199 0.9072 -0.4032
vn -0.3559 0.9195 0.1671
vn 0.4230 0.8229 0.3793
vn 0.4227 0.8232 0.3791
vn 0.4225 0.8233 0.3790
vn 0.9061 0.2044 -0.3703
vn 0.9067 0.2015 -0.3707
vn 0.9061 0.2043 -0.3704
vn 0.3830 0.2319 -0.8942
vn 0.3829 0.2319 -0.8942
vn -0.3570 0.2686 -0.8947
vn -0.8803 0.2960 -0.3706
vn -0.8796 0.2988 -0.3702
vn -0.8804 0.2960 -0.3705
vn -0.8804 0.2960 0.3705
vn -0.8795 0.2989 0.3703
vn -0.8803 0.2961 0.3706
vn -0.3570 0.2686 0.8947
vn 0.3829 0.2318 0.8942
vn 0.3830 0.2319 0.8942
vn 0.3830 0.2318 0.8942
vn 0.9061 0.2044 0.3704
vn 0.9067 0.2014 0.3706
vn 0.9061 0.2044 0.3703
vn 0.8898 0.2777 -0.3621
vn 0.8898 0.2778 -0.3621
vn 0.3784 0.3052 -0.8739
vn -0.3446 0.3419 -0.8743
vn -0.8558 0.3695 -0.3620
vn -0.8559 0.3694 -0.3621
vn -0.8557 0.3698 -0.3620
vn -0.8557 0.3698 0.3620
vn -0.8559 0.3694 0.3621
vn -0.8558 0.3695 0.3620
vn -0.3446 0.3420 0.8742
vn -0.3446 0.3419 0.8743
vn 0.3784 0.3052 0.8739
vn 0.8898 0.2777 0.3621
vn 0.8898 0.2779 0.3620
vn -0.1160 -0.9913 -0.0619
vn 0.8237 0.4886 -0.2879
vn 0.8239 0.4883 -0.2877
vn 0.8238 0.4885 -0.2878
vn 0.3428 0.5312 -0.7748
vn 0.3427 0.5313 -0.7748
vn -0.3445 0.5458 -0.7638
vn -0.3446 0.5460 -0.7636
vn -0.3446 0.5459 -0.7637
vn -0.8127 0.5124 -0.2775
vn -0.8127 0.5124 -0.2774
vn -0.8213 0.4698 0.3238
vn -0.8213 0.4698 0.3237
vn -0.8213 0.4697 0.3238
vn -0.3581 0.4978 0.7899
vn -0.3579 0.4977 0.7901
vn 0.3644 0.5251 0.7691
vn 0.3644 0.5249 0.7692
vn 0.3644 0.5250 0.7692
vn 0.8053 0.4850 0.3409
vn 0.8054 0.4850 0.3408
vn 0.8054 0.4849 0.3409
vn 0.0555 -0.9984 0.0091
vn 0.0559 -0.9984 0.0092
vn 0.0557 -0.9945 -0.0888
vn 0.0554 -0.9945 -0.0888
vn -0.0456 -0.9971 -0.0603
vn 0.8477 0.3874 -0.3623
vn 0.8478 0.3874 -0.3620
vn 0.8478 0.3875 -0.3622
vn 0.3409 0.3540 -0.8709
vn 0.3410 0.3541 -0.8708
vn -0.3772 0.3144 -0.8711
vn -0.3770 0.3143 -0.8713
vn -0.3771 0.3142 -0.8712
vn -0.8856 0.2897 -0.3630
vn -0.8855 0.2900 -0.3631
vn -0.8863 0.2961 0.3560
vn -0.8862 0.2965 0.3560
vn -0.3789 0.3298 0.8647
vn -0.3789 0.3294 0.8648
vn 0.3392 0.3693 0.8652
vn 0.8472 0.3936 0.3567
vn 0.8473 0.3934 0.3568
vn 0.8473 0.3933 0.3569
vn 0.1800 -0.9796 0.0893
vn 0.1804 -0.9796 0.0890
vn 0.1799 -0.9796 0.0890
vn 0.7493 0.5324 -0.3938
vn 0.7494 0.5324 -0.3937
vn 0.7486 0.5336 -0.3935
vn 0.3673 0.4609 -0.8079
vn -0.3379 0.4990 -0.7980
vn -0.3380 0.4988 -0.7981
vn -0.3376 0.5002 -0.7974
vn -0.8216 0.4913 -0.2891
vn -0.8217 0.4913 -0.2888
vn -0.8215 0.4917 -0.2888
vn -0.8290 0.4531 0.3277
vn -0.8290 0.4531 0.3280
vn -0.8296 0.4519 0.3280
vn -0.3501 0.4761 0.8067
vn 0.2732 0.5004 0.8216
vn 0.7666 0.5629 0.3089
vn 0.7664 0.5630 0.3092
vn 0.7672 0.5620 0.3093
vn 0.0242 -0.9994 0.0243
vn 0.0246 -0.9994 0.0242
vn 0.0242 -0.9994 0.0246
vn 0.0244 -0.9963 -0.0819
vn 0.0245 -0.9964 -0.0816
vn 0.0241 -0.9963 -0.0819
vn 0.1162 -0.9919 -0.0510
vn 0.1162 -0.9919 -0.0515
vn 0.1157 -0.9920 -0.0510
vn 0.8787 0.2959 -0.3745
vn 0.8787 0.2960 -0.3745
vn 0.8788 0.2960 -0.3744
vn 0.3603 0.2688 -0.8933
vn 0.3602 0.2686 -0.8934
vn -0.3737 0.2531 -0.8924
vn -0.3737 0.2531 -0.8923
vn -0.3736 0.2532 -0.8924
vn -0.8925 0.2532 -0.3733
vn -0.8925 0.2531 -0.3734
vn -0.8924 0.2716 0.3604
vn -0.3738 0.2959 0.8790
vn 0.3601 0.3143 0.8784
vn 0.3598 0.3143 0.8785
vn 0.8787 0.3143 0.3593
vn -0.2418 -0.9630 -0.1190
vn 0.8805 0.3745 -0.2907
vn 0.8802 0.3753 -0.2906
vn 0.4180 0.4723 -0.7760
vn 0.4177 0.4729 -0.7758
vn 0.4179 0.4728 -0.7757
vn -0.3031 0.5884 -0.7496
vn -0.3027 0.5887 -0.7496
vn -0.7847 0.5709 -0.2413
vn -0.8045 0.4787 0.3517
vn -0.8042 0.4791 0.3517
vn -0.3274 0.4525 0.8295
vn -0.3270 0.4528 0.8295
vn -0.3269 0.4532 0.8293
vn 0.4213 0.4204 0.8036
vn 0.4212 0.4211 0.8033
vn 0.8630 0.3494 0.3649
vn -0.0246 -0.9993 -0.0295
vn -0.0243 -0.9864 -0.1627
vn -0.1540 -0.9804 -0.1231
vn -0.1528 -0.9804 -0.1243
vn -0.1525 -0.9805 -0.1242
vn 0.8908 0.2809 -0.3572
vn 0.8910 0.2806 -0.3569
vn 0.3739 0.3084 -0.8747
vn 0.3738 0.3083 -0.8748
vn 0.3739 0.3081 -0.8748
vn -0.3582 0.3265 -0.8747
vn -0.3581 0.3267 -0.8747
vn -0.3582 0.3267 -0.8746
vn -0.8757 0.3250 -0.3571
vn -0.8761 0.3237 -0.3573
vn -0.8757 0.3250 -0.3570
vn -0.8765 0.3020 0.3748
vn -0.8765 0.3021 0.3748
vn -0.8766 0.3022 0.3745
vn -0.3593 0.2748 0.8918
vn 0.3724 0.2567 0.8918
vn 0.3725 0.2563 0.8920
vn 0.8903 0.2593 0.3745
vn 0.8559 0.1526 -0.4942
vn -0.0000 0.0860 -0.9963
vn 0.8533 -0.1710 -0.4927
vn -0.8636 0.0746 -0.4986
vn -0.8533 0.1708 0.4927
vn -0.0000 0.0961 0.9954
vn 0.8636 -0.0747 0.4986
vn 0.8069 0.4946 -0.3229
vn 0.8068 0.4947 -0.3230
vn 0.3500 0.5218 -0.7779
vn -0.3078 0.5065 -0.8055
vn -0.3076 0.5065 -0.8055
vn -0.7363 0.5976 -0.3174
vn -0.7361 0.5978 -0.3174
vn -0.7361 0.5978 -0.3175
vn -0.3076 0.5066 0.8054
vn -0.3076 0.5067 0.8054
vn -0.3076 0.5065 0.8055
vn 0.3591 0.4704 0.8061
vn -0.1469 -0.9884 0.0394
vn -0.1472 -0.9883 0.0393
vn 0.0236 -0.9969 -0.0753
vn 0.0235 -0.9969 -0.0753
vn 0.0236 -0.9969 -0.0757
vn 0.0014 -0.9916 -0.1291
vn 0.0014 -0.9917 -0.1286
vn 0.4227 0.8232 -0.3791
vn 0.4227 0.8231 -0.3791
vn 0.4225 0.8233 -0.3790
vn -0.3558 0.9195 -0.1670
vn -0.3557 0.9195 -0.1670
vn -0.3558 0.9195 -0.1671
vn -0.1199 0.9073 0.4031
vn 0.9067 0.2015 -0.3706
vn -0.8795 0.2989 -0.3703
vn -0.8795 0.2989 0.3702
vn -0.3570 0.2687 0.8946
vn 0.9066 0.2015 0.3707
vn -0.3446 0.3418 0.8743
vn 0.8898 0.2778 0.3621
vn -0.0459 -0.9989 0.0095
vn -0.0457 -0.9989 0.0090
vn 0.7644 0.5520 -0.3332
vn 0.7644 0.5520 -0.3330
vn 0.2821 0.5829 -0.7620
vn 0.2822 0.5824 -0.7624
vn 0.2822 0.5826 -0.7622
vn -0.3447 0.5459 -0.7637
vn -0.8206 0.4637 -0.3339
vn -0.8206 0.4638 -0.3339
vn -0.8206 0.4637 -0.3340
vn -0.3580 0.4978 0.7900
vn 0.3181 0.4638 0.8269
vn 0.3183 0.4639 0.8267
vn 0.8054 0.4849 0.3408
vn 0.0267 -0.9978 -0.0604
vn 0.0085 -0.9935 -0.1136
vn 0.0085 -0.9935 -0.1139
vn 0.8478 0.3874 -0.3621
vn 0.3408 0.3540 -0.8709
vn -0.3771 0.3143 -0.8712
vn -0.8863 0.2961 0.3561
vn 0.8472 0.3936 0.3568
vn 0.1165 -0.9929 0.0245
vn 0.8064 0.4760 -0.3509
vn 0.8066 0.4759 -0.3506
vn 0.8065 0.4760 -0.3507
vn 0.3131 0.5127 -0.7995
vn 0.3131 0.5126 -0.7995
vn -0.3378 0.5003 -0.7973
vn -0.8290 0.4365 -0.3496
vn -0.8290 0.4364 -0.3496
vn -0.8291 0.4363 -0.3497
vn -0.8297 0.4518 0.3278
vn 0.3091 0.5658 0.7644
vn 0.3092 0.5650 0.7650
vn 0.3094 0.5649 0.7650
vn 0.7672 0.5619 0.3093
vn 0.0246 -0.9994 0.0246
vn -0.0071 -0.9987 -0.0508
vn -0.1625 -0.9605 0.2257
vn 0.8788 0.2959 -0.3744
vn -0.3740 0.2962 0.8789
vn 0.3600 0.3142 0.8784
vn -0.1548 -0.9875 -0.0293
vn 0.8365 0.4388 -0.3282
vn 0.8362 0.4393 -0.3284
vn 0.8361 0.4395 -0.3284
vn 0.3317 0.5722 -0.7501
vn 0.3317 0.5722 -0.7500
vn 0.3319 0.5724 -0.7498
vn -0.3027 0.5889 -0.7493
vn -0.8038 0.4990 -0.3238
vn -0.8040 0.4986 -0.3240
vn -0.8039 0.4990 -0.3237
vn -0.8042 0.4792 0.3516
vn 0.3624 0.3471 0.8650
vn 0.3624 0.3464 0.8652
vn 0.3625 0.3466 0.8652
vn -0.0634 -0.9902 -0.1243
vn -0.0636 -0.9902 -0.1241
vn -0.1526 -0.9805 -0.1242
vn 0.3739 0.3083 -0.8747
vn -0.3581 0.3265 -0.8747
vn -0.8762 0.3236 -0.3572
vn -0.8764 0.3028 0.3745
vt 0.185483 0.041599
vt 0.210432 0.042288
vt 0.183546 0.148998
vt 0.055730 0.041283
vt 0.081281 0.042307
vt 0.061291 0.148924
vt 0.107550 0.043402
vt 0.086226 0.148841
vt 0.134389 0.043503
vt 0.110297 0.148716
vt 0.160503 0.042553
vt 0.134025 0.148714
vt 0.158196 0.148854
vt 0.209272 0.148997
vt 0.210457 0.244487
vt 0.081100 0.244132
vt 0.107462 0.242801
vt 0.134467 0.242703
vt 0.160645 0.243929
vt 0.185558 0.245174
vt 0.074441 0.668510
vt 0.049539 0.601308
vt 0.139536 0.698491
vt 0.888786 0.600858
vt 0.913688 0.667165
vt 0.834063 0.639038
vt 0.498726 0.651796
vt 0.532887 0.590452
vt 0.555601 0.667722
vt 0.581666 0.542691
vt 0.580073 0.628875
vt 0.646491 0.523518
vt 0.617024 0.599318
vt 0.712438 0.516946
vt 0.661519 0.581088
vt 0.779567 0.522537
vt 0.709711 0.576297
vt 0.839523 0.553091
vt 0.757092 0.585339
vt 0.799792 0.606816
vt 0.079411 0.535249
vt 0.143234 0.604804
vt 0.146625 0.510379
vt 0.212088 0.541163
vt 0.237194 0.608434
vt 0.685718 0.751980
vt 0.690103 0.746156
vt 0.686569 0.759480
vt 0.697583 0.745172
vt 0.695064 0.754575
vt 0.703558 0.749671
vt 0.704467 0.757095
vt 0.699968 0.763070
vt 0.788625 0.706111
vt 0.719200 0.753414
vt 0.774429 0.685366
vt 0.636148 0.679626
vt 0.620437 0.699203
vt 0.656419 0.664306
vt 0.694082 0.741628
vt 0.680476 0.654812
vt 0.698443 0.738926
vt 0.706447 0.652291
vt 0.702981 0.738200
vt 0.732139 0.657044
vt 0.707462 0.739396
vt 0.755385 0.668479
vt 0.711643 0.742499
vt 0.715364 0.747421
vt 0.855773 0.679337
vt 0.744199 0.924963
vt 0.713367 0.843844
vt 0.823140 0.959975
vt 1.837549 0.761534
vt 1.872001 0.838611
vt 1.781170 0.807035
vt 1.354581 0.823874
vt 1.404296 0.757094
vt 1.412178 0.844204
vt 1.467777 0.707174
vt 1.446924 0.794514
vt 1.540254 0.671599
vt 1.496168 0.755805
vt 1.620394 0.663751
vt 1.554797 0.732392
vt 1.699779 0.678449
vt 1.617604 0.726223
vt 1.776554 0.706420
vt 1.679485 0.737713
vt 1.735302 0.765785
vt 0.748458 0.764907
vt 0.826310 0.846826
vt 0.829075 0.733871
vt 0.908451 0.769055
vt 0.939529 0.849642
vt 1.813649 0.857690
vt 1.731110 0.902254
vt 1.514941 0.861682
vt 1.543735 0.838447
vt 1.577478 0.824676
vt 1.613602 0.821184
vt 1.649380 0.827994
vt 1.682135 0.844691
vt 1.709655 0.870078
vt -0.261394 0.878806
vt -0.299579 0.781651
vt -0.165893 0.920095
vt 0.599774 0.804233
vt 0.661202 0.886202
vt 0.547856 0.847685
vt 0.024077 0.900081
vt 0.080404 0.814139
vt 0.097497 0.922171
vt 0.153746 0.746639
vt 0.135652 0.856865
vt 0.239696 0.696277
vt 0.192767 0.804442
vt 0.337829 0.680074
vt 0.262947 0.770781
vt 0.436576 0.691839
vt 0.339596 0.758095
vt 0.523579 0.740162
vt 0.416750 0.767316
vt 0.488412 0.797798
vt -0.258249 0.686168
vt -0.163486 0.783872
vt -0.161548 0.647775
vt -0.065425 0.688546
vt -0.026993 0.785230
vt 0.588792 0.911323
vt 0.490084 0.963232
vt 0.222908 0.929560
vt 0.256283 0.898352
vt 0.297177 0.878515
vt 0.342145 0.871082
vt 0.387403 0.876477
vt 0.429140 0.894448
vt 0.463844 0.924134
vt 1.282791 0.861364
vt 1.178062 0.915084
vt 1.317039 0.750584
vt -0.376186 0.729259
vt -0.326875 0.834352
vt -0.449948 0.791883
vt -1.047271 0.828403
vt -0.974933 0.738796
vt -0.971484 0.855594
vt -0.889506 0.667933
vt -0.923813 0.782262
vt -0.791595 0.614144
vt -0.854847 0.725057
vt -0.680934 0.601425
vt -0.772083 0.690348
vt -0.570743 0.620168
vt -0.683248 0.680142
vt -0.461494 0.654087
vt -0.595343 0.695116
vt -0.515806 0.733967
vt 1.067267 0.880680
vt 1.164371 0.763861
vt 1.013180 0.778043
vt 1.047095 0.666193
vt 1.149655 0.612031
vt -0.402412 0.864258
vt -0.521502 0.925361
vt -0.824046 0.873639
vt -0.784862 0.840548
vt -0.737828 0.820604
vt -0.686936 0.814825
vt -0.636395 0.823612
vt -0.590014 0.846370
vt -0.551007 0.881174
vt 0.055528 0.245317
vt 0.207181 0.673515
vt 0.692544 0.763978
vt 0.904284 0.928634
vt 1.492088 0.892603
vt -0.068641 0.881497
vt 0.198378 0.969767
vt 1.261821 0.647283
vt -0.853538 0.917306
s 1
usemtl Material_#26.017
f 1/1/1 2/2/1 15/3/2
f 2/4/3 3/5/3 14/6/3
f 3/5/4 4/7/4 13/8/4
f 4/7/5 5/9/5 18/10/6
f 5/9/7 6/11/7 17/12/8
f 6/11/9 1/1/9 16/13/9
f 14/14/10 8/15/11 15/3/10
f 13/8/12 9/16/13 14/6/12
f 18/10/14 10/17/15 13/8/16
f 17/12/17 11/18/18 18/10/17
f 16/13/19 12/19/20 17/12/21
f 15/3/22 7/20/23 16/13/22
f 26/21/24 25/22/24 19/23/25
f 19/24/26 20/25/27 46/26/28
f 20/27/29 21/28/30 45/29/29
f 21/28/31 22/30/31 52/31/31
f 22/30/32 23/32/33 51/33/34
f 23/32/35 24/34/36 50/35/37
f 24/34/38 25/36/39 49/37/38
f 25/36/40 26/38/41 48/39/42
f 26/38/43 19/24/44 47/40/45
f 25/22/46 24/41/46 35/42/46
f 23/43/47 22/44/48 35/42/47
f 35/42/49 21/45/49 19/23/50
f 28/46/51 29/47/51 27/48/51
f 29/47/52 30/49/52 36/50/52
f 31/51/53 32/52/53 36/50/53
f 36/50/54 33/53/55 27/48/56
f 38/54/57 28/55/58 39/56/59
f 37/57/60 29/47/60 38/58/61
f 44/59/62 30/60/62 37/57/62
f 43/61/63 31/62/64 44/59/65
f 42/63/66 32/64/67 43/61/68
f 41/65/69 33/66/69 42/63/69
f 40/67/70 34/68/71 41/65/72
f 39/56/73 27/69/74 40/67/75
f 45/70/76 38/54/76 46/26/77
f 52/31/78 37/57/78 45/29/78
f 51/33/79 44/59/79 52/31/79
f 50/35/80 43/61/81 51/33/82
f 49/37/83 42/63/84 50/35/85
f 48/39/86 41/65/86 49/37/87
f 47/40/88 40/67/88 48/39/88
f 46/26/89 39/56/90 47/40/89
f 60/71/91 59/72/91 53/73/91
f 53/74/92 54/75/93 71/76/94
f 54/77/95 55/78/96 70/79/95
f 55/78/97 56/80/98 77/81/99
f 56/80/100 57/82/101 76/83/100
f 57/82/102 58/84/103 75/85/104
f 58/84/105 59/86/106 74/87/105
f 59/86/107 60/88/108 73/89/109
f 60/88/110 53/74/111 72/90/112
f 59/72/113 58/91/114 69/92/113
f 57/93/115 56/94/116 69/92/116
f 69/92/117 55/95/117 53/73/117
f 70/96/118 62/97/119 71/76/120
f 77/81/121 63/98/121 70/79/122
f 76/83/123 64/99/124 77/81/125
f 75/85/126 65/100/127 76/83/127
f 74/87/128 66/101/129 75/85/128
f 73/89/130 67/102/131 74/87/131
f 72/90/132 68/103/132 73/89/132
f 71/76/133 61/104/134 72/90/135
f 85/105/136 84/106/137 78/107/138
f 78/108/139 79/109/140 96/110/141
f 79/111/142 80/112/142 95/113/142
f 80/112/143 81/114/144 102/115/145
f 81/114/146 82/116/147 101/117/148
f 82/116/149 83/118/150 100/119/151
f 83/118/152 84/120/152 99/121/152
f 84/120/153 85/122/153 98/123/153
f 85/122/154 78/108/155 97/124/156
f 84/106/157 83/125/158 94/126/159
f 82/127/160 81/128/161 94/126/162
f 94/126/163 80/129/164 78/107/165
f 95/130/166 87/131/167 96/110/168
f 102/115/169 88/132/170 95/113/170
f 101/117/171 89/133/172 102/115/173
f 100/119/174 90/134/174 101/117/175
f 99/121/176 91/135/176 100/119/176
f 98/123/177 92/136/177 99/121/177
f 97/124/178 93/137/178 98/123/179
f 96/110/180 86/138/180 97/124/180
f 110/139/181 109/140/181 103/141/181
f 103/142/182 104/143/182 121/144/183
f 104/145/184 105/146/185 120/147/186
f 105/146/187 106/148/188 127/149/187
f 106/148/189 107/150/189 126/151/189
f 107/150/190 108/152/190 125/153/191
f 108/152/192 109/154/193 124/155/194
f 109/154/195 110/156/195 123/157/196
f 110/156/197 103/142/197 122/158/197
f 109/140/198 108/159/198 119/160/198
f 107/161/199 106/162/199 119/160/199
f 119/160/200 105/163/201 103/141/202
f 120/164/203 112/165/204 121/144/203
f 127/149/205 113/166/206 120/147/207
f 126/151/208 114/167/209 127/149/210
f 125/153/211 115/168/212 126/151/213
f 124/155/214 116/169/215 125/153/216
f 123/157/217 117/170/217 124/155/217
f 122/158/218 118/171/218 123/157/219
f 121/144/220 111/172/220 122/158/220
f 2/2/1 14/14/221 15/3/2
f 3/5/3 13/8/222 14/6/222
f 4/7/4 18/10/4 13/8/4
f 5/9/5 17/12/6 18/10/6
f 6/11/7 16/13/8 17/12/8
f 1/1/9 15/3/9 16/13/9
f 8/15/11 7/20/223 15/3/10
f 9/16/13 8/173/13 14/6/12
f 10/17/15 9/16/224 13/8/16
f 11/18/18 10/17/225 18/10/17
f 12/19/20 11/18/226 17/12/21
f 7/20/23 12/19/227 16/13/22
f 25/22/24 35/42/24 19/23/25
f 20/25/228 45/70/228 46/26/229
f 21/28/30 52/31/230 45/29/29
f 22/30/231 51/33/232 52/31/232
f 23/32/233 50/35/234 51/33/235
f 24/34/36 49/37/36 50/35/37
f 25/36/236 48/39/237 49/37/238
f 26/38/41 47/40/239 48/39/42
f 19/24/44 46/26/43 47/40/45
f 24/41/240 23/43/241 35/42/240
f 22/44/242 21/45/243 35/42/244
f 21/45/245 20/174/246 19/23/246
f 29/47/247 36/50/248 27/48/249
f 30/49/250 31/51/251 36/50/252
f 32/52/253 33/53/253 36/50/253
f 33/53/51 34/175/51 27/48/51
f 28/55/58 27/69/254 39/56/59
f 29/47/60 28/46/60 38/58/61
f 30/60/62 29/47/62 37/57/62
f 31/62/64 30/60/255 44/59/65
f 32/64/67 31/62/256 43/61/68
f 33/66/69 32/64/257 42/63/69
f 34/68/71 33/66/71 41/65/72
f 27/69/74 34/68/258 40/67/75
f 38/54/76 39/56/77 46/26/77
f 37/57/78 38/58/78 45/29/78
f 44/59/79 37/57/79 52/31/79
f 43/61/81 44/59/81 51/33/82
f 42/63/84 43/61/84 50/35/85
f 41/65/86 42/63/259 49/37/87
f 40/67/88 41/65/88 48/39/88
f 39/56/90 40/67/260 47/40/89
f 59/72/261 69/92/262 53/73/262
f 54/75/263 70/96/263 71/76/264
f 55/78/265 77/81/266 70/79/267
f 56/80/98 76/83/268 77/81/99
f 57/82/269 75/85/270 76/83/271
f 58/84/103 74/87/103 75/85/104
f 59/86/106 73/89/272 74/87/105
f 60/88/273 72/90/274 73/89/274
f 53/74/111 71/76/275 72/90/112
f 58/91/114 57/93/113 69/92/113
f 56/94/276 55/95/276 69/92/276
f 55/95/277 54/176/278 53/73/278
f 62/97/119 61/104/279 71/76/120
f 63/98/121 62/177/280 70/79/122
f 64/99/124 63/98/281 77/81/125
f 65/100/127 64/99/127 76/83/127
f 66/101/129 65/100/282 75/85/128
f 67/102/131 66/101/131 74/87/131
f 68/103/132 67/102/132 73/89/132
f 61/104/134 68/103/283 72/90/135
f 84/106/284 94/126/284 78/107/284
f 79/109/285 95/130/286 96/110/287
f 80/112/288 102/115/288 95/113/289
f 81/114/144 101/117/290 102/115/145
f 82/116/291 100/119/292 101/117/293
f 83/118/150 99/121/294 100/119/151
f 84/120/152 98/123/152 99/121/152
f 85/122/295 97/124/296 98/123/297
f 78/108/155 96/110/298 97/124/156
f 83/125/158 82/127/299 94/126/159
f 81/128/300 80/129/300 94/126/300
f 80/129/301 79/178/301 78/107/301
f 87/131/167 86/138/302 96/110/168
f 88/132/170 87/179/170 95/113/170
f 89/133/172 88/132/171 102/115/173
f 90/134/174 89/133/175 101/117/175
f 91/135/176 90/134/176 100/119/176
f 92/136/177 91/135/303 99/121/177
f 93/137/178 92/136/304 98/123/179
f 86/138/180 93/137/180 97/124/180
f 109/140/305 119/160/305 103/141/305
f 104/143/306 120/164/307 121/144/308
f 105/146/309 127/149/310 120/147/311
f 106/148/188 126/151/312 127/149/187
f 107/150/313 125/153/314 126/151/315
f 108/152/190 124/155/316 125/153/191
f 109/154/193 123/157/193 124/155/194
f 110/156/317 122/158/318 123/157/319
f 103/142/197 121/144/197 122/158/197
f 108/159/198 107/161/198 119/160/198
f 106/162/320 105/163/321 119/160/321
f 105/163/201 104/180/322 103/141/202
f 112/165/204 111/172/203 121/144/203
f 113/166/206 112/181/323 120/147/207
f 114/167/209 113/166/324 127/149/210
f 115/168/212 114/167/325 126/151/213
f 116/169/215 115/168/326 125/153/216
f 117/170/217 116/169/217 124/155/217
f 118/171/218 117/170/219 123/157/219
f 111/172/220 118/171/220 122/158/220
